<svg width="304" height="304" viewBox="0 0 304 304" fill="none" xmlns="http://www.w3.org/2000/svg">
<path d="M86.4001 127.4C86.4001 131.1 86.8001 134.1 87.5001 136.3C88.3001 138.5 89.3001 140.9 90.7001 143.5C91.2001 144.3 91.4001 145.1 91.4001 145.8C91.4001 146.8 90.8001 147.8 89.5001 148.8L83.2001 153C82.3001 153.6 81.4001 153.9 80.6001 153.9C79.6001 153.9 78.6001 153.4 77.6001 152.5C76.2001 151 75.0001 149.4 74.0001 147.8C73.0001 146.1 72.0001 144.2 70.9001 141.9C63.1001 151.1 53.3001 155.7 41.5001 155.7C33.1001 155.7 26.4001 153.3 21.5001 148.5C16.6001 143.7 14.1001 137.3 14.1001 129.3C14.1001 120.8 17.1001 113.9 23.2001 108.7C29.3001 103.5 37.4001 100.9 47.7001 100.9C51.1001 100.9 54.6001 101.2 58.3001 101.7C62.0001 102.2 65.8001 103 69.8001 103.9V96.6C69.8001 89 68.2001 83.7 65.1001 80.6C61.9001 77.5 56.5001 76 48.8001 76C45.3001 76 41.7001 76.4 38.0001 77.3C34.3001 78.2 30.7001 79.3 27.2001 80.7C25.6001 81.4 24.4001 81.8 23.7001 82C23.0001 82.2 22.5001 82.3 22.1001 82.3C20.7001 82.3 20.0001 81.3 20.0001 79.2V74.3C20.0001 72.7 20.2001 71.5 20.7001 70.8C21.2001 70.1 22.1001 69.4 23.5001 68.7C27.0001 66.9 31.2001 65.4 36.1001 64.2C41.0001 62.9 46.2001 62.3 51.7001 62.3C63.6001 62.3 72.3001 65 77.9001 70.4C83.4001 75.8 86.2001 84 86.2001 95V127.4H86.4001ZM45.8001 142.6C49.1001 142.6 52.5001 142 56.1001 140.8C59.7001 139.6 62.9001 137.4 65.6001 134.4C67.2001 132.5 68.4001 130.4 69.0001 128C69.6001 125.6 70.0001 122.7 70.0001 119.3V115.1C67.1001 114.4 64.0001 113.8 60.8001 113.4C57.6001 113 54.5001 112.8 51.4001 112.8C44.7001 112.8 39.8001 114.1 36.5001 116.8C33.2001 119.5 31.6001 123.3 31.6001 128.3C31.6001 133 32.8001 136.5 35.3001 138.9C37.7001 141.4 41.2001 142.6 45.8001 142.6ZM126.1 153.4C124.3 153.4 123.1 153.1 122.3 152.4C121.5 151.8 120.8 150.4 120.2 148.5L96.7001 71.2C96.1001 69.2 95.8001 67.9 95.8001 67.2C95.8001 65.6 96.6001 64.7 98.2001 64.7H108C109.9 64.7 111.2 65 111.9 65.7C112.7 66.3 113.3 67.7 113.9 69.6L130.7 135.8L146.3 69.6C146.8 67.6 147.4 66.3 148.2 65.7C149 65.1 150.4 64.7 152.2 64.7H160.2C162.1 64.7 163.4 65 164.2 65.7C165 66.3 165.7 67.7 166.1 69.6L181.9 136.6L199.2 69.6C199.8 67.6 200.5 66.3 201.2 65.7C202 65.1 203.3 64.7 205.1 64.7H214.4C216 64.7 216.9 65.5 216.9 67.2C216.9 67.7 216.8 68.2 216.7 68.8C216.6 69.4 216.4 70.2 216 71.3L191.9 148.6C191.3 150.6 190.6 151.9 189.8 152.5C189 153.1 187.7 153.5 186 153.5H177.4C175.5 153.5 174.2 153.2 173.4 152.5C172.6 151.8 171.9 150.5 171.5 148.5L156 84L140.6 148.4C140.1 150.4 139.5 151.7 138.7 152.4C137.9 153.1 136.5 153.4 134.7 153.4H126.1ZM254.6 156.1C249.4 156.1 244.2 155.5 239.2 154.3C234.2 153.1 230.3 151.8 227.7 150.3C226.1 149.4 225 148.4 224.6 147.5C224.2 146.6 224 145.6 224 144.7V139.6C224 137.5 224.8 136.5 226.3 136.5C226.9 136.5 227.5 136.6 228.1 136.8C228.7 137 229.6 137.4 230.6 137.8C234 139.3 237.7 140.5 241.6 141.3C245.6 142.1 249.5 142.5 253.5 142.5C259.8 142.5 264.7 141.4 268.1 139.2C271.5 137 273.3 133.8 273.3 129.7C273.3 126.9 272.4 124.6 270.6 122.7C268.8 120.8 265.4 119.1 260.5 117.5L246 113C238.7 110.7 233.3 107.3 230 102.8C226.7 98.4 225 93.5 225 88.3C225 84.1 225.9 80.4 227.7 77.2C229.5 74 231.9 71.2 234.9 69C237.9 66.7 241.3 65 245.3 63.8C249.3 62.6 253.5 62.1 257.9 62.1C260.1 62.1 262.4 62.2 264.6 62.5C266.9 62.8 269 63.2 271.1 63.6C273.1 64.1 275 64.6 276.8 65.2C278.6 65.8 280 66.4 281 67C282.4 67.8 283.4 68.6 284 69.5C284.6 70.3 284.9 71.4 284.9 72.8V77.5C284.9 79.6 284.1 80.7 282.6 80.7C281.8 80.7 280.5 80.3 278.8 79.5C273.1 76.9 266.7 75.6 259.6 75.6C253.9 75.6 249.4 76.5 246.3 78.4C243.2 80.3 241.6 83.2 241.6 87.3C241.6 90.1 242.6 92.5 244.6 94.4C246.6 96.3 250.3 98.2 255.6 99.9L269.8 104.4C277 106.7 282.2 109.9 285.3 114C288.4 118.1 289.9 122.8 289.9 128C289.9 132.3 289 136.2 287.3 139.6C285.5 143 283.1 146 280 148.4C276.9 150.9 273.2 152.7 268.9 154C264.4 155.4 259.7 156.1 254.6 156.1Z" fill="#252F3E"/>
<path fill-rule="evenodd" clip-rule="evenodd" d="M273.5 204.7C240.6 229 192.8 241.9 151.7 241.9C94.1 241.9 42.2 220.6 2.99999 185.2C-0.100014 182.4 2.69999 178.6 6.39999 180.8C48.8 205.4 101.1 220.3 155.2 220.3C191.7 220.3 231.8 212.7 268.7 197.1C274.2 194.6 278.9 200.7 273.5 204.7Z" fill="#FF9900"/>
<path fill-rule="evenodd" clip-rule="evenodd" d="M287.2 189.1C283 183.7 259.4 186.5 248.7 187.8C245.5 188.2 245 185.4 247.9 183.3C266.7 170.1 297.6 173.9 301.2 178.3C304.8 182.8 300.2 213.7 282.6 228.5C279.9 230.8 277.3 229.6 278.5 226.6C282.5 216.7 291.4 194.4 287.2 189.1Z" fill="#FF9900"/>
</svg>
