<svg width="436" height="41" viewBox="0 0 436 41" fill="none" xmlns="http://www.w3.org/2000/svg">
<g filter="url(#filter0_d)">
<path d="M28.4688 13.5938C28.8125 13.8438 29.0625 14.0312 29.2188 14.1562C29.4062 14.25 29.5469 14.3281 29.6406 14.3906C29.7656 14.4531 29.875 14.5312 29.9688 14.625C30.0938 14.7188 30.2812 14.8594 30.5312 15.0469C30.375 15.3906 30.2969 15.6562 30.2969 15.8438C30.2969 16.0312 30.3125 16.2188 30.3438 16.4062C30.375 16.5625 30.4062 16.7344 30.4375 16.9219C30.5 17.1094 30.5156 17.3594 30.4844 17.6719C28.7656 18.7656 27.2344 19.6406 25.8906 20.2969C24.5781 20.9219 23.2969 21.4688 22.0469 21.9375C20.8281 22.4062 19.5469 22.8594 18.2031 23.2969C16.8906 23.7031 15.3594 24.25 13.6094 24.9375C14.3281 25.375 15.25 25.7656 16.375 26.1094C17.5312 26.4219 18.6719 26.7969 19.7969 27.2344C20.9531 27.6406 22 28.1562 22.9375 28.7812C23.875 29.4062 24.5 30.2188 24.8125 31.2188C25.25 31.25 25.625 31.5 25.9375 31.9688C26.2812 32.4375 26.4219 32.9844 26.3594 33.6094C26.0469 33.7969 25.75 34.0156 25.4688 34.2656C25.2188 34.4844 24.8906 34.6562 24.4844 34.7812C24.1406 34.8438 23.6875 34.8125 23.125 34.6875C22.5938 34.5625 22 34.3906 21.3438 34.1719C20.7188 33.9531 20.0469 33.7188 19.3281 33.4688C18.6406 33.2188 17.9844 33.0156 17.3594 32.8594C16.7344 32.7031 16.0469 32.5625 15.2969 32.4375C14.5781 32.3125 13.9062 32.125 13.2812 31.875C13 31.75 12.75 31.6094 12.5312 31.4531C12.3438 31.2656 12.1094 31.1406 11.8281 31.0781C11.2656 30.9844 10.6562 30.8125 10 30.5625C9.375 30.2812 8.73438 29.9844 8.07812 29.6719C7.42188 29.3594 6.76562 29.0469 6.10938 28.7344C5.48438 28.4219 4.89062 28.1406 4.32812 27.8906C4.35938 27.7031 4.15625 27.4688 3.71875 27.1875C3.28125 26.9062 2.8125 26.75 2.3125 26.7188C2.3125 26.3438 2.15625 26.0156 1.84375 25.7344C1.5625 25.4219 1.34375 25.0781 1.1875 24.7031C0.84375 23.8281 0.96875 23 1.5625 22.2188C2.15625 21.4375 3.04688 20.9688 4.23438 20.8125C4.60938 20.9375 4.89062 21 5.07812 21C5.29688 20.9688 5.57812 21.0312 5.92188 21.1875C6.48438 20.8125 7.15625 20.4531 7.9375 20.1094C8.75 19.7344 9.53125 19.625 10.2812 19.7812C10.375 19.5312 10.5469 19.4062 10.7969 19.4062C11.0781 19.4062 11.25 19.2656 11.3125 18.9844C12.5938 18.7656 13.8438 18.4219 15.0625 17.9531C16.2812 17.4844 17.4688 16.9844 18.625 16.4531C19.7812 15.8906 20.8906 15.3438 21.9531 14.8125C23.0469 14.25 24.0938 13.75 25.0938 13.3125C25.5312 13.4375 25.9375 13.4375 26.3125 13.3125C26.6875 13.1562 27.0781 13.0938 27.4844 13.125C27.3906 13.2188 27.375 13.2812 27.4375 13.3125C27.5 13.3438 27.5938 13.375 27.7188 13.4062C27.8438 13.4062 27.9688 13.4219 28.0938 13.4531C28.25 13.4531 28.375 13.5 28.4688 13.5938ZM53.125 31.9219C52.2188 31.2344 51.4688 30.375 50.875 29.3438C50.3125 28.3125 49.8594 27.2188 49.5156 26.0625C49.2031 24.9062 48.9844 23.7188 48.8594 22.5C48.7656 21.25 48.7344 20.0625 48.7656 18.9375C49.0469 18.0938 49.3906 17.3281 49.7969 16.6406C50.2031 15.9219 50.6562 15.25 51.1562 14.625C51.6562 13.9688 52.1719 13.3594 52.7031 12.7969C53.2656 12.2031 53.8125 11.6094 54.3438 11.0156C54.5312 11.0156 54.7031 11.0625 54.8594 11.1562C54.9844 10.8125 55.1719 10.5156 55.4219 10.2656C55.6719 10.0156 55.9375 9.79688 56.2188 9.60938C56.5 9.39062 56.7812 9.1875 57.0625 9C57.3438 8.78125 57.5781 8.53125 57.7656 8.25C58.5469 8.0625 59.2344 7.79688 59.8281 7.45312C60.4531 7.10938 61.0469 6.73438 61.6094 6.32812C62.1719 5.92188 62.75 5.54688 63.3438 5.20312C63.9375 4.85938 64.625 4.59375 65.4062 4.40625C65.6875 4.09375 66.0312 3.82812 66.4375 3.60938C66.875 3.39062 67.2969 3.1875 67.7031 3C68.1406 2.8125 68.5469 2.60938 68.9219 2.39062C69.3281 2.17188 69.6562 1.875 69.9062 1.5C70.0938 1.75 70.3594 1.84375 70.7031 1.78125C71.0469 1.6875 71.3594 1.59375 71.6406 1.5C71.8281 1.46875 71.9844 1.5 72.1094 1.59375C72.2344 1.6875 72.3438 1.79688 72.4375 1.92188C72.5625 2.01562 72.6562 2.07812 72.7188 2.10938C72.8125 2.14062 72.9062 2.04688 73 1.82812C73.25 1.85938 73.3125 1.96875 73.1875 2.15625C73.0938 2.34375 73.0312 2.46875 73 2.53125C73.3125 2.46875 73.5625 2.53125 73.75 2.71875C73.9688 2.875 74.2969 2.98438 74.7344 3.04688C74.8906 3.20312 74.9375 3.32812 74.875 3.42188C74.8125 3.51562 74.7656 3.67188 74.7344 3.89062C75.8594 4.23438 76.5781 4.78125 76.8906 5.53125C77.2031 6.25 77.2344 7.01562 76.9844 7.82812C76.7344 8.60938 76.2656 9.34375 75.5781 10.0312C74.9219 10.6875 74.1875 11.125 73.375 11.3438C72.4062 11.5938 71.5 11.8438 70.6562 12.0938C69.8438 12.3438 69.0469 12.625 68.2656 12.9375C67.5156 13.25 66.7969 13.625 66.1094 14.0625C65.4531 14.4688 64.875 14.9531 64.375 15.5156C63.5 15.7656 62.7031 16.1094 61.9844 16.5469C61.2969 16.9844 60.6406 17.4688 60.0156 18C59.4219 18.5312 58.8438 19.0938 58.2812 19.6875C57.7188 20.25 57.1562 20.8125 56.5938 21.375C56.5938 21.9062 56.5 22.3125 56.3125 22.5938C56.125 22.875 55.9219 23.1562 55.7031 23.4375C55.7656 24.0312 55.8906 24.5469 56.0781 24.9844C56.2969 25.3906 56.5156 25.8125 56.7344 26.25C59.2344 27 61.875 27.4688 64.6562 27.6562C67.4688 27.8125 70.25 27.9062 73 27.9375C73.2812 28.3125 73.5938 28.6719 73.9375 29.0156C74.3125 29.3281 74.6406 29.6562 74.9219 30C75.2344 30.3438 75.4688 30.75 75.625 31.2188C75.8125 31.6562 75.8594 32.1875 75.7656 32.8125C75.2344 33.3438 74.6562 33.8594 74.0312 34.3594C73.4062 34.8281 72.7812 35.2969 72.1562 35.7656C71.875 35.7969 71.5312 35.7969 71.125 35.7656C70.75 35.7344 70.3438 35.7188 69.9062 35.7188C69.5 35.7188 69.0781 35.75 68.6406 35.8125C68.2344 35.8438 67.8438 35.9375 67.4688 36.0938C65.5 36.0312 63.4844 35.7969 61.4219 35.3906C59.3594 34.9531 57.4531 34.4375 55.7031 33.8438C55.3594 33.4375 55 33.0625 54.625 32.7188C54.25 32.3438 53.75 32.0781 53.125 31.9219ZM102.109 31.4531C102.172 32.2656 102.078 32.9375 101.828 33.4688C101.578 34 101.234 34.4531 100.797 34.8281C100.359 35.2031 99.8594 35.5 99.2969 35.7188C98.7344 35.9375 98.1875 36.1406 97.6562 36.3281C97.4062 36.1719 97.1562 36.0156 96.9062 35.8594C96.6875 35.6719 96.4219 35.5312 96.1094 35.4375C95.7031 34.6875 95.3125 34.0312 94.9375 33.4688C94.5625 32.875 94.3906 32.2031 94.4219 31.4531C94.4219 31.4219 94.4375 31.25 94.4688 30.9375C94.5312 30.625 94.5938 30.2812 94.6562 29.9062C94.75 29.5312 94.8125 29.1875 94.8438 28.875C94.9062 28.5312 94.9375 28.3438 94.9375 28.3125C94.2188 28.375 93.4688 28.5312 92.6875 28.7812C91.9062 29.0312 91.1406 29.3281 90.3906 29.6719C89.6719 30.0156 88.9844 30.3594 88.3281 30.7031C87.7031 31.0469 87.1875 31.3438 86.7812 31.5938C86.7812 31.6875 86.7188 31.9219 86.5938 32.2969C86.4688 32.6406 86.3125 33.0156 86.125 33.4219C85.9375 33.7969 85.7344 34.1406 85.5156 34.4531C85.2969 34.7656 85.0781 34.9219 84.8594 34.9219C84.8906 35.0156 84.9375 35.1094 85 35.2031C85.0625 35.2969 85.0625 35.4219 85 35.5781C84.5625 35.7031 84.1719 35.8594 83.8281 36.0469C83.4844 36.2656 83.125 36.4375 82.75 36.5625C82.375 36.7188 81.9688 36.7969 81.5312 36.7969C81.0938 36.7969 80.5781 36.6406 79.9844 36.3281C79.9844 36.1406 79.9062 35.9844 79.75 35.8594C79.5938 35.7031 79.4219 35.5781 79.2344 35.4844C79.0781 35.3594 78.9375 35.2656 78.8125 35.2031C78.6875 35.1094 78.625 35.0312 78.625 34.9688C78.4688 35 78.4062 34.8906 78.4375 34.6406C78.4688 34.3906 78.5938 34.3281 78.8125 34.4531C78.4688 34.0156 78.25 33.6406 78.1562 33.3281C78.0938 32.9844 77.9219 32.5625 77.6406 32.0625C77.7031 32 77.7656 31.8906 77.8281 31.7344C77.8594 31.5781 77.8906 31.4375 77.9219 31.3125C77.9531 31.1875 78 31.0938 78.0625 31.0312C78.125 30.9688 78.2031 30.9844 78.2969 31.0781C78.2344 30.7969 78.2344 30.5625 78.2969 30.375C78.3594 30.1875 78.4219 30.0156 78.4844 29.8594C78.5469 29.7031 78.5938 29.5469 78.625 29.3906C78.6562 29.2344 78.6094 29.0625 78.4844 28.875C78.9844 28.1875 79.3125 27.4531 79.4688 26.6719C79.625 25.8594 79.7188 25.125 79.75 24.4688C79.9688 24.25 80.1562 23.9375 80.3125 23.5312C80.5 23.125 80.6406 22.7188 80.7344 22.3125C80.8281 21.875 80.8594 21.4688 80.8281 21.0938C80.8281 20.6875 80.7812 20.3594 80.6875 20.1094C80.7188 19.9531 80.8906 19.9062 81.2031 19.9688C81.3906 18.9375 81.5156 17.7812 81.5781 16.5C81.6719 15.1875 81.8125 13.9531 82 12.7969C82.1875 11.6094 82.5 10.5781 82.9375 9.70312C83.375 8.79688 84.0781 8.20312 85.0469 7.92188C85.2344 8.57812 85.4688 9.15625 85.75 9.65625C86.0625 10.1562 86.3906 10.6406 86.7344 11.1094C87.1094 11.5469 87.4688 12 87.8125 12.4688C88.1875 12.9375 88.5312 13.4688 88.8438 14.0625C88.8125 14.6562 88.75 15.3438 88.6562 16.125C88.5625 16.9062 88.4375 17.7031 88.2812 18.5156C88.1562 19.3281 88.0156 20.1094 87.8594 20.8594C87.7344 21.6094 87.6094 22.25 87.4844 22.7812C87.5156 22.9375 87.5938 23.0312 87.7188 23.0625C87.875 23.0938 87.9062 23.2344 87.8125 23.4844C88.5625 23.2969 89.3438 23.125 90.1562 22.9688C90.9688 22.8125 91.7812 22.6406 92.5938 22.4531C93.4062 22.2656 94.1875 22.0625 94.9375 21.8438C95.7188 21.5938 96.4375 21.2969 97.0938 20.9531C97.25 19.7344 97.4531 18.5156 97.7031 17.2969C97.9531 16.0781 97.9844 14.8281 97.7969 13.5469C97.9531 13.4219 98.0781 13.2656 98.1719 13.0781C98.2656 12.8906 98.4219 12.7656 98.6406 12.7031C98.4844 12.1094 98.4219 11.4844 98.4531 10.8281C98.4844 10.1719 98.5938 9.54688 98.7812 8.95312C99 8.35938 99.2969 7.85938 99.6719 7.45312C100.078 7.01562 100.562 6.73438 101.125 6.60938C101.469 7.10938 101.766 7.65625 102.016 8.25C102.266 8.8125 102.516 9.39062 102.766 9.98438C103.047 10.5469 103.328 11.0938 103.609 11.625C103.922 12.125 104.312 12.5625 104.781 12.9375C104.875 13.8438 104.938 14.7812 104.969 15.75C105.031 16.7188 105.078 17.7031 105.109 18.7031C104.859 19.8906 104.578 21.0469 104.266 22.1719C103.984 23.2656 103.781 24.4375 103.656 25.6875C103.438 25.9375 103.266 26.2188 103.141 26.5312C103.016 26.8438 102.891 27.1719 102.766 27.5156C102.641 27.8281 102.5 28.1406 102.344 28.4531C102.188 28.7344 102 28.9844 101.781 29.2031C101.906 29.5781 101.922 29.9375 101.828 30.2812C101.766 30.5938 101.859 30.9844 102.109 31.4531ZM113.594 31.125C113.25 32.375 112.938 33.3281 112.656 33.9844C112.406 34.6094 112.016 35.2656 111.484 35.9531C111.078 35.8906 110.797 35.9375 110.641 36.0938C110.484 36.25 110.312 36.3906 110.125 36.5156C109.844 36.5781 109.641 36.5781 109.516 36.5156C109.391 36.4531 109.281 36.375 109.188 36.2812C109.094 36.2188 108.969 36.1406 108.812 36.0469C108.688 35.9844 108.484 35.9531 108.203 35.9531C108.141 35.7031 108.062 35.4688 107.969 35.25C107.906 35.0312 107.703 34.9531 107.359 35.0156C107.422 34.7656 107.438 34.5625 107.406 34.4062C107.375 34.2188 107.328 34.0625 107.266 33.9375C107.234 33.7812 107.203 33.6406 107.172 33.5156C107.141 33.3594 107.156 33.1719 107.219 32.9531C107.062 32.9531 106.938 32.8438 106.844 32.625C106.75 32.4062 106.641 32.1875 106.516 31.9688C106.609 31.4062 106.703 30.875 106.797 30.375C106.891 29.875 107 29.4062 107.125 28.9688C107.281 28.5312 107.406 28.0938 107.5 27.6562C107.594 27.2188 107.547 26.7656 107.359 26.2969C107.484 26.3906 107.578 26.375 107.641 26.25C107.703 26.0938 107.75 25.9062 107.781 25.6875C107.812 25.4375 107.828 25.2031 107.828 24.9844C107.828 24.7344 107.812 24.5312 107.781 24.375C108.094 23.5625 108.344 22.7344 108.531 21.8906C108.75 21.0156 108.938 20.1562 109.094 19.3125C109.281 18.4688 109.469 17.6406 109.656 16.8281C109.844 16.0156 110.094 15.2656 110.406 14.5781C110.75 14.5156 111.125 14.5625 111.531 14.7188C111.969 14.8438 112.234 15.0156 112.328 15.2344C113.141 14.6094 113.859 13.8594 114.484 12.9844C115.109 12.0781 115.75 11.2031 116.406 10.3594C117.062 9.51562 117.781 8.76562 118.562 8.10938C119.375 7.45312 120.391 7.0625 121.609 6.9375C122.234 7.40625 122.922 7.89062 123.672 8.39062C124.453 8.85938 125.094 9.48438 125.594 10.2656C125.844 10.3906 126.047 10.5312 126.203 10.6875C126.391 10.8125 126.609 10.9531 126.859 11.1094V11.6719C127.234 12.0156 127.531 12.4219 127.75 12.8906C128 13.3281 128.219 13.8125 128.406 14.3438C128.594 14.8438 128.781 15.3594 128.969 15.8906C129.156 16.3906 129.375 16.875 129.625 17.3438C129.562 17.5 129.531 17.6406 129.531 17.7656C129.531 17.8594 129.547 17.9688 129.578 18.0938C129.641 18.2188 129.688 18.3438 129.719 18.4688C129.75 18.5938 129.75 18.7656 129.719 18.9844C129.625 20.3594 129.172 21.4688 128.359 22.3125C127.578 23.1562 126.625 23.8594 125.5 24.4219C124.375 24.9531 123.172 25.4062 121.891 25.7812C120.609 26.1562 119.453 26.5625 118.422 27C118.422 27.125 118.469 27.1875 118.562 27.1875C118.688 27.1875 118.734 27.2656 118.703 27.4219C119.453 27.8906 120.047 28.2656 120.484 28.5469C120.922 28.8281 121.328 29.0625 121.703 29.25C122.109 29.4375 122.531 29.6094 122.969 29.7656C123.438 29.8906 124.078 30.0469 124.891 30.2344C125.703 30.4219 126.328 30.5781 126.766 30.7031C127.234 30.7969 127.656 30.8906 128.031 30.9844C128.406 31.0469 128.781 31.1094 129.156 31.1719C129.562 31.2031 130.125 31.25 130.844 31.3125C131.125 31.5938 131.359 31.9375 131.547 32.3438C131.766 32.7188 131.906 33.1094 131.969 33.5156C132.031 33.8906 132.047 34.2656 132.016 34.6406C131.984 34.9844 131.875 35.2656 131.688 35.4844C131.719 35.5781 131.781 35.625 131.875 35.625C132 35.5938 132.125 35.5938 132.25 35.625C132.062 35.75 131.906 35.9062 131.781 36.0938C131.656 36.2812 131.531 36.4688 131.406 36.6562C131.281 36.8438 131.141 37 130.984 37.125C130.828 37.2812 130.609 37.375 130.328 37.4062C129.359 37.7812 128.141 37.7969 126.672 37.4531C125.203 37.1406 123.344 36.5469 121.094 35.6719C119.969 35.2344 119.047 34.8594 118.328 34.5469C117.641 34.2031 117.031 33.875 116.5 33.5625C116 33.2188 115.531 32.8594 115.094 32.4844C114.688 32.1094 114.188 31.6562 113.594 31.125ZM120.297 15.0469C119.953 15.5469 119.562 16 119.125 16.4062C118.719 16.8125 118.312 17.2344 117.906 17.6719C117.531 18.0781 117.188 18.5469 116.875 19.0781C116.562 19.5781 116.344 20.1719 116.219 20.8594C117.312 20.7344 118.453 20.4375 119.641 19.9688C120.828 19.4688 121.953 19 123.016 18.5625C122.891 17.5938 122.547 16.8125 121.984 16.2188C121.453 15.625 120.891 15.2344 120.297 15.0469ZM141.953 32.7188C142.109 33.6562 142.047 34.3906 141.766 34.9219C141.516 35.4531 141.141 35.8438 140.641 36.0938C140.172 36.375 139.625 36.5312 139 36.5625C138.375 36.5938 137.781 36.5625 137.219 36.4688C136.906 36.0312 136.625 35.4844 136.375 34.8281C136.125 34.1719 135.891 33.5 135.672 32.8125C135.453 32.0938 135.25 31.3906 135.062 30.7031C134.906 30.0156 134.766 29.4062 134.641 28.875C134.797 28.5 134.891 28.0781 134.922 27.6094C134.984 27.1094 135.016 26.6094 135.016 26.1094C135.047 25.6094 135.062 25.1094 135.062 24.6094C135.094 24.0781 135.141 23.5781 135.203 23.1094C135.422 21.7969 135.734 20.5469 136.141 19.3594C136.578 18.1719 136.922 16.9375 137.172 15.6562C137.234 15.375 137.203 15.1094 137.078 14.8594C136.984 14.6094 136.969 14.375 137.031 14.1562C137.062 14.0312 137.156 13.9531 137.312 13.9219C137.469 13.8594 137.562 13.75 137.594 13.5938C137.688 13.25 137.703 12.9688 137.641 12.75C137.609 12.5312 137.672 12.2656 137.828 11.9531C137.984 11.7031 138.172 11.3438 138.391 10.875C138.641 10.375 138.734 9.85938 138.672 9.32812C138.953 9.14062 139.219 8.92188 139.469 8.67188C139.719 8.42188 139.969 8.20312 140.219 8.01562C140.5 7.79688 140.797 7.60938 141.109 7.45312C141.453 7.29688 141.859 7.21875 142.328 7.21875C142.578 7.53125 142.734 7.875 142.797 8.25C142.891 8.625 142.969 9 143.031 9.375C143.125 9.75 143.25 10.1094 143.406 10.4531C143.562 10.7656 143.828 11.0156 144.203 11.2031C144.203 11.4531 144.203 11.7656 144.203 12.1406C144.203 12.5156 144.219 12.8906 144.25 13.2656C144.281 13.6094 144.344 13.9375 144.438 14.25C144.562 14.5312 144.75 14.7188 145 14.8125C144.438 16.3125 143.906 17.7969 143.406 19.2656C142.938 20.7344 142.547 22.2188 142.234 23.7188C141.922 25.1875 141.719 26.6719 141.625 28.1719C141.562 29.6719 141.672 31.1875 141.953 32.7188ZM148.141 14.9062C148.359 14.25 148.703 13.6875 149.172 13.2188C149.672 12.75 150.203 12.3594 150.766 12.0469C151.359 11.7031 151.969 11.4219 152.594 11.2031C153.219 10.9844 153.812 10.7969 154.375 10.6406C155.625 10.1094 156.953 9.60938 158.359 9.14062C159.797 8.64062 161.25 8.20312 162.719 7.82812C164.219 7.45312 165.75 7.21875 167.312 7.125C168.875 7 170.516 7.1875 172.234 7.6875C172.328 8 172.469 8.29688 172.656 8.57812C172.844 8.85938 173.031 9.14062 173.219 9.42188C173.438 9.70312 173.625 9.98438 173.781 10.2656C173.938 10.5156 174.031 10.7812 174.062 11.0625C174.375 11.3438 174.625 11.6562 174.812 12C175 12.3125 175.031 12.7344 174.906 13.2656C174.594 13.5156 174.281 13.75 173.969 13.9688C173.688 14.1562 173.375 14.3281 173.031 14.4844C171.875 14.2031 170.703 14.1094 169.516 14.2031C168.328 14.2969 167.266 14.375 166.328 14.4375C166.047 14.1562 165.703 14.0156 165.297 14.0156C164.922 14.0156 164.516 14.0781 164.078 14.2031C163.672 14.3281 163.25 14.4531 162.812 14.5781C162.406 14.7031 162.016 14.7344 161.641 14.6719C161.328 14.9219 160.938 15.0938 160.469 15.1875C160.031 15.25 159.547 15.3125 159.016 15.375C158.984 15.5312 159.016 15.6406 159.109 15.7031C159.203 15.7344 159.219 15.8281 159.156 15.9844C159.344 16.2031 159.578 16.3594 159.859 16.4531C160.172 16.5469 160.484 16.6406 160.797 16.7344C161.141 16.8281 161.438 16.9531 161.688 17.1094C161.938 17.2344 162.109 17.4531 162.203 17.7656C162.672 17.7656 163.078 17.875 163.422 18.0938C163.766 18.3125 164.047 18.5781 164.266 18.8906C164.484 19.2031 164.641 19.5469 164.734 19.9219C164.859 20.2656 164.922 20.5781 164.922 20.8594C165.016 21.1094 165.125 21.2188 165.25 21.1875C165.375 21.1562 165.516 21.2188 165.672 21.375C165.766 21.7812 166 22.2031 166.375 22.6406C166.75 23.0469 167.047 23.5 167.266 24C167.328 24.7812 167.375 25.4844 167.406 26.1094C167.438 26.7031 167.328 27.3125 167.078 27.9375C166.609 29.0938 165.953 30.125 165.109 31.0312C164.297 31.9375 163.359 32.75 162.297 33.4688C161.266 34.1562 160.156 34.75 158.969 35.25C157.781 35.75 156.625 36.1719 155.5 36.5156C155.375 36.4844 155.25 36.4844 155.125 36.5156C155 36.5469 154.969 36.4688 155.031 36.2812C154.781 36.5 154.5 36.6406 154.188 36.7031C153.906 36.7656 153.594 36.7812 153.25 36.75C152.906 36.75 152.547 36.7344 152.172 36.7031C151.828 36.6719 151.5 36.6875 151.188 36.75C150.969 36.5312 150.766 36.3125 150.578 36.0938C150.422 35.9062 150.297 35.6562 150.203 35.3438C150.047 35.3438 149.969 35.2656 149.969 35.1094C150 34.9531 149.953 34.875 149.828 34.875C150.016 34.5625 150.094 34.3906 150.062 34.3594C150.062 34.2969 150.016 34.25 149.922 34.2188C149.859 34.1875 149.797 34.1562 149.734 34.125C149.672 34.0625 149.656 33.9844 149.688 33.8906C149.812 33.6406 149.859 33.3594 149.828 33.0469C149.797 32.7031 149.766 32.3594 149.734 32.0156C149.703 31.6719 149.719 31.3438 149.781 31.0312C149.875 30.7188 150.109 30.4688 150.484 30.2812C151.547 30.4062 152.547 30.375 153.484 30.1875C154.453 29.9688 155.359 29.6719 156.203 29.2969C157.047 28.9219 157.844 28.5156 158.594 28.0781C159.375 27.6406 160.141 27.25 160.891 26.9062C160.984 26.625 161.109 26.3906 161.266 26.2031C161.453 26.0156 161.641 25.8438 161.828 25.6875C162.016 25.5312 162.188 25.3594 162.344 25.1719C162.5 24.9844 162.609 24.75 162.672 24.4688C162.703 24.25 162.641 24.125 162.484 24.0938C162.359 24.0312 162.297 23.9062 162.297 23.7188L161.781 23.5781C161.188 23.2344 160.516 22.9531 159.766 22.7344C159.016 22.4844 158.375 22.2188 157.844 21.9375C157.5 22.125 157.172 22.1719 156.859 22.0781C156.578 21.9844 156.203 21.8906 155.734 21.7969C154.672 21.7344 153.641 21.625 152.641 21.4688C151.672 21.3125 150.734 21.0312 149.828 20.625C149.766 20.4688 149.688 20.3281 149.594 20.2031C149.5 20.0781 149.328 20.0469 149.078 20.1094C148.891 19.8594 148.703 19.625 148.516 19.4062C148.328 19.1562 148.156 18.8906 148 18.6094C148.062 18.2344 148.109 17.9219 148.141 17.6719C148.172 17.3906 148.078 17.125 147.859 16.875C147.984 16.4688 148.078 16.1406 148.141 15.8906C148.203 15.6406 148.203 15.3125 148.141 14.9062ZM188.125 34.4062C188.031 34.4375 187.969 34.4062 187.938 34.3125C187.906 34.2188 187.891 34.125 187.891 34.0312C187.922 33.9375 187.969 33.8594 188.031 33.7969C188.125 33.7344 188.234 33.7344 188.359 33.7969C187.953 33.2969 187.688 32.8438 187.562 32.4375C187.469 32.0312 187.266 31.5312 186.953 30.9375C187.047 30.8438 187.109 30.7188 187.141 30.5625C187.172 30.375 187.219 30.2031 187.281 30.0469C187.312 29.8906 187.359 29.7812 187.422 29.7188C187.516 29.625 187.625 29.6406 187.75 29.7656C187.688 29.4219 187.688 29.1406 187.75 28.9219C187.812 28.7031 187.875 28.5 187.938 28.3125C188.031 28.125 188.094 27.9375 188.125 27.75C188.156 27.5625 188.109 27.3438 187.984 27.0938C188.578 26.2812 188.969 25.4062 189.156 24.4688C189.344 23.5 189.453 22.625 189.484 21.8438C189.766 21.5625 190 21.1875 190.188 20.7188C190.406 20.25 190.562 19.7656 190.656 19.2656C190.75 18.7656 190.797 18.2812 190.797 17.8125C190.797 17.3125 190.734 16.9219 190.609 16.6406C190.641 16.5156 190.703 16.4531 190.797 16.4531C190.922 16.4219 191.062 16.4219 191.219 16.4531C191.438 15.2031 191.578 13.8125 191.641 12.2812C191.734 10.75 191.891 9.28125 192.109 7.875C192.359 6.4375 192.75 5.1875 193.281 4.125C193.812 3.03125 194.656 2.32812 195.812 2.01562C196.031 2.79688 196.312 3.48438 196.656 4.07812C197.031 4.67188 197.422 5.25 197.828 5.8125C198.266 6.375 198.703 6.9375 199.141 7.5C199.578 8.0625 199.984 8.6875 200.359 9.375C200.328 10.0938 200.25 10.9219 200.125 11.8594C200.031 12.7969 199.891 13.75 199.703 14.7188C199.547 15.6875 199.375 16.625 199.188 17.5312C199.031 18.4375 198.875 19.2031 198.719 19.8281C198.75 19.9844 198.859 20.0938 199.047 20.1562C199.234 20.1875 199.266 20.3594 199.141 20.6719C200.047 20.4531 200.984 20.25 201.953 20.0625C202.953 19.8438 203.922 19.6406 204.859 19.4531C205.828 19.2344 206.766 18.9844 207.672 18.7031C208.609 18.4219 209.484 18.0781 210.297 17.6719C210.484 16.1719 210.719 14.6875 211 13.2188C211.281 11.75 211.312 10.2656 211.094 8.76562C211.281 8.60938 211.438 8.42188 211.562 8.20312C211.688 7.98438 211.875 7.84375 212.125 7.78125C211.938 7.0625 211.859 6.3125 211.891 5.53125C211.922 4.71875 212.047 3.96875 212.266 3.28125C212.516 2.59375 212.875 2 213.344 1.5C213.812 0.96875 214.391 0.625 215.078 0.46875C215.484 1.0625 215.844 1.70312 216.156 2.39062C216.469 3.07812 216.781 3.78125 217.094 4.5C217.406 5.1875 217.734 5.84375 218.078 6.46875C218.453 7.09375 218.922 7.625 219.484 8.0625C219.578 9.15625 219.656 10.2812 219.719 11.4375C219.781 12.5625 219.828 13.7344 219.859 14.9531C219.578 16.3594 219.25 17.7344 218.875 19.0781C218.531 20.3906 218.281 21.7969 218.125 23.2969C217.875 23.5781 217.672 23.9219 217.516 24.3281C217.359 24.7031 217.203 25.0938 217.047 25.5C216.922 25.875 216.766 26.25 216.578 26.625C216.391 27 216.156 27.3125 215.875 27.5625C216 28 216.016 28.4219 215.922 28.8281C215.859 29.2031 215.969 29.6562 216.25 30.1875C216.312 31.1562 216.188 31.9688 215.875 32.625C215.594 33.25 215.188 33.7969 214.656 34.2656C214.156 34.7031 213.562 35.0625 212.875 35.3438C212.219 35.5938 211.562 35.8281 210.906 36.0469C210.594 35.8594 210.297 35.6719 210.016 35.4844C209.766 35.2656 209.453 35.1094 209.078 35.0156L209.312 34.5938C208.688 33.9688 208.141 33.3125 207.672 32.625C207.234 31.9062 207.031 31.0938 207.062 30.1875C207.062 30.1562 207.094 29.9531 207.156 29.5781C207.219 29.1719 207.281 28.75 207.344 28.3125C207.438 27.875 207.516 27.4688 207.578 27.0938C207.672 26.6875 207.719 26.4688 207.719 26.4375C206.844 26.5312 205.938 26.7344 205 27.0469C204.062 27.3594 203.141 27.7188 202.234 28.125C201.359 28.5 200.531 28.9062 199.75 29.3438C199 29.75 198.391 30.0938 197.922 30.375C197.922 30.4688 197.844 30.7344 197.688 31.1719C197.531 31.6094 197.344 32.0781 197.125 32.5781C196.906 33.0469 196.656 33.4688 196.375 33.8438C196.125 34.2188 195.859 34.3906 195.578 34.3594C195.641 34.5156 195.703 34.6406 195.766 34.7344C195.828 34.7969 195.828 34.9375 195.766 35.1562C195.234 35.3125 194.75 35.5156 194.312 35.7656C193.906 36.0156 193.484 36.2188 193.047 36.375C192.609 36.5625 192.125 36.6406 191.594 36.6094C191.094 36.6094 190.484 36.4219 189.766 36.0469C189.766 35.8281 189.672 35.6406 189.484 35.4844C189.297 35.2969 189.094 35.1406 188.875 35.0156C188.688 34.8906 188.516 34.7812 188.359 34.6875C188.203 34.5938 188.125 34.5 188.125 34.4062ZM248.125 21.9375C248.094 22.3125 248.125 22.6719 248.219 23.0156C248.312 23.3594 248.422 23.7031 248.547 24.0469C248.703 24.3594 248.844 24.6875 248.969 25.0312C249.094 25.375 249.188 25.7188 249.25 26.0625C249.312 26.5 249.312 26.9844 249.25 27.5156C249.188 28.0156 249.078 28.5156 248.922 29.0156C248.766 29.4844 248.562 29.9219 248.312 30.3281C248.062 30.7031 247.766 30.9844 247.422 31.1719C246.984 31.7344 246.453 32.1719 245.828 32.4844C245.203 32.7969 244.625 33.1719 244.094 33.6094C243.75 33.8281 243.359 33.9844 242.922 34.0781C242.516 34.1719 242.094 34.2656 241.656 34.3594C241.312 34.5469 240.906 34.75 240.438 34.9688C239.969 35.1562 239.484 35.3438 238.984 35.5312C238.484 35.6875 237.984 35.8125 237.484 35.9062C236.984 35.9688 236.547 35.9844 236.172 35.9531C235.234 36.2969 234.312 36.5156 233.406 36.6094C232.531 36.7344 231.5 36.6719 230.312 36.4219C229.188 36.5781 228.141 36.5312 227.172 36.2812C226.234 36.0312 225.391 35.6406 224.641 35.1094C223.922 34.5469 223.281 33.8906 222.719 33.1406C222.188 32.3594 221.75 31.5469 221.406 30.7031C221.156 28.9219 221.219 27.3125 221.594 25.875C221.969 24.4062 222.5 23.0625 223.188 21.8438C223.906 20.5938 224.719 19.4531 225.625 18.4219C226.531 17.3594 227.406 16.3281 228.25 15.3281C228.438 15.3906 228.578 15.3906 228.672 15.3281C228.797 15.2344 228.906 15.125 229 15C229.094 14.8438 229.188 14.7031 229.281 14.5781C229.406 14.4531 229.547 14.375 229.703 14.3438C229.922 13.875 230.234 13.5312 230.641 13.3125C231.078 13.0625 231.422 12.7188 231.672 12.2812C231.953 12.2188 232.188 12.125 232.375 12C232.562 11.875 232.734 11.7344 232.891 11.5781C233.078 11.4219 233.266 11.2812 233.453 11.1562C233.641 11 233.859 10.8906 234.109 10.8281V10.3125C234.672 10.0625 235.078 9.78125 235.328 9.46875C235.609 9.125 235.938 8.71875 236.312 8.25C236.594 8.21875 236.812 8.20312 236.969 8.20312C237.156 8.20312 237.422 8.17188 237.766 8.10938C238.016 7.67188 238.234 7.34375 238.422 7.125C238.641 6.90625 238.953 6.67188 239.359 6.42188C239.734 6.60938 240.141 6.73438 240.578 6.79688C241.047 6.85938 241.453 7.0625 241.797 7.40625C241.828 7.71875 241.922 7.96875 242.078 8.15625C242.234 8.3125 242.406 8.46875 242.594 8.625C242.781 8.75 242.953 8.89062 243.109 9.04688C243.297 9.20312 243.422 9.42188 243.484 9.70312C243.609 9.73438 243.688 9.71875 243.719 9.65625C243.781 9.59375 243.875 9.57812 244 9.60938C244.094 10.0469 244.203 10.3438 244.328 10.5C244.453 10.625 244.578 10.8906 244.703 11.2969C244.547 11.6094 244.422 11.9375 244.328 12.2812C244.266 12.5938 244.078 12.8281 243.766 12.9844C243.734 13.2031 243.797 13.3281 243.953 13.3594C244.109 13.3594 244.203 13.4375 244.234 13.5938C244.266 13.875 244.219 14.0781 244.094 14.2031C244.844 15.4219 245.516 16.7188 246.109 18.0938C246.703 19.4375 247.375 20.7188 248.125 21.9375ZM242.266 26.3906C242.391 26.0469 242.547 25.7656 242.734 25.5469C242.953 25.3281 243.078 25 243.109 24.5625C242.953 24.3125 242.859 24.125 242.828 24C242.797 23.8438 242.781 23.6094 242.781 23.2969C242.094 22.3281 241.5 21.2969 241 20.2031C240.5 19.0781 239.938 18.0312 239.312 17.0625C239.25 17.1875 239.141 17.3125 238.984 17.4375C238.828 17.5625 238.656 17.5312 238.469 17.3438C238.406 17.5938 238.297 17.7812 238.141 17.9062C237.984 18 237.812 18.0469 237.625 18.0469C237.438 18.0156 237.234 17.9688 237.016 17.9062C236.828 17.8125 236.656 17.7031 236.5 17.5781C235.594 18.2969 234.688 19 233.781 19.6875C232.875 20.375 232.062 21.1719 231.344 22.0781C231.219 22.1406 231.141 22.1719 231.109 22.1719C231.078 22.1406 230.984 22.1562 230.828 22.2188C230.578 22.8125 230.266 23.3594 229.891 23.8594C229.547 24.3281 229.203 24.8125 228.859 25.3125C228.516 25.8125 228.219 26.3438 227.969 26.9062C227.719 27.4688 227.578 28.125 227.547 28.875C228.078 29.3125 228.703 29.5781 229.422 29.6719C230.141 29.7656 230.875 29.7812 231.625 29.7188C232.406 29.6562 233.156 29.5625 233.875 29.4375C234.625 29.2812 235.312 29.2031 235.938 29.2031C237.25 28.8906 238.375 28.4844 239.312 27.9844C240.25 27.4531 241.234 26.9219 242.266 26.3906ZM277.375 36.6094C276.281 36.1094 275.406 35.375 274.75 34.4062C274.125 33.4375 273.5 32.3594 272.875 31.1719C272.781 30.9844 272.688 30.7969 272.594 30.6094C272.5 30.4219 272.406 30.25 272.312 30.0938L271.656 28.875L271.281 28.125L270.719 28.6406L269.875 29.3906L269.406 29.8594C268.594 30.6094 267.766 31.3594 266.922 32.1094C266.109 32.8281 265.234 33.4844 264.297 34.0781C263.391 34.6406 262.422 35.1094 261.391 35.4844C260.391 35.8281 259.297 36.0156 258.109 36.0469L257.078 35.5312C256.484 35.2188 255.984 34.9375 255.578 34.6875C255.172 34.4375 254.703 34.0469 254.172 33.5156C254.016 33.2344 253.875 32.9688 253.75 32.7188C253.656 32.4688 253.547 32.2188 253.422 31.9688C253.078 31.3438 252.797 30.7812 252.578 30.2812C252.359 29.7812 252.141 29.2188 251.922 28.5938C252.016 28.1562 252.156 27.4219 252.344 26.3906C252.531 25.3281 252.75 24.1719 253 22.9219C253.281 21.6719 253.562 20.4219 253.844 19.1719C254.156 17.8906 254.469 16.7812 254.781 15.8438C255.062 15.0312 255.375 14.1719 255.719 13.2656C256.094 12.3594 256.484 11.5312 256.891 10.7812C257.328 10 257.797 9.34375 258.297 8.8125C258.797 8.25 259.328 7.92188 259.891 7.82812C260.047 8.04688 260.219 8.20312 260.406 8.29688C260.594 8.39062 260.766 8.46875 260.922 8.53125C261.359 9.15625 261.781 9.6875 262.188 10.125C262.625 10.5625 263.125 11 263.688 11.4375C263.531 12.2188 263.297 13.0938 262.984 14.0625C262.703 15 262.391 15.9531 262.047 16.9219C261.734 17.8594 261.422 18.7812 261.109 19.6875C260.797 20.5938 260.547 21.375 260.359 22.0312C260.172 22.5625 260.016 23.1562 259.891 23.8125C259.609 24.9688 259.344 26.5469 259.094 28.5469C259.469 28.4531 259.875 28.25 260.312 27.9375C260.75 27.625 261.172 27.2969 261.578 26.9531C262.047 26.5781 262.516 26.1562 262.984 25.6875C263.578 25.0938 264.078 24.5469 264.484 24.0469C264.891 23.5469 265.266 23.0312 265.609 22.5C265.984 21.9688 266.359 21.3906 266.734 20.7656C267.109 20.1094 267.562 19.3438 268.094 18.4688C268.562 17.7188 269.047 16.9219 269.547 16.0781C270.078 15.2031 270.594 14.375 271.094 13.5938C271.625 12.7812 272.141 12.0469 272.641 11.3906C273.141 10.7344 273.594 10.2188 274 9.84375C274.25 10.1562 274.562 10.4531 274.938 10.7344C275.344 11.0156 275.766 11.2344 276.203 11.3906C276.391 11.6719 276.562 11.9375 276.719 12.1875C276.906 12.4062 277.078 12.6094 277.234 12.7969C277.422 13.0781 277.594 13.3438 277.75 13.5938C277.938 13.8438 278.109 14.0938 278.266 14.3438C278.234 14.5625 278.188 14.8438 278.125 15.1875C278.062 15.5312 277.984 15.9062 277.891 16.3125C277.828 16.7188 277.75 17.1406 277.656 17.5781C277.562 17.9844 277.469 18.375 277.375 18.75C277.125 19.9375 276.938 20.8281 276.812 21.4219C276.688 22.0156 276.594 22.4844 276.531 22.8281C276.5 23.1719 276.469 23.4688 276.438 23.7188C276.438 23.9375 276.438 24.25 276.438 24.6562C276.406 24.9688 276.422 25.2812 276.484 25.5938C276.516 25.875 276.578 26.1719 276.672 26.4844C276.766 26.7969 276.891 27.0781 277.047 27.3281L278.922 25.875C279.453 25.4688 279.953 24.9219 280.422 24.2344C280.922 23.5156 281.391 22.7031 281.828 21.7969C282.297 20.8594 282.75 19.8438 283.188 18.75C283.625 17.6562 284.062 16.5469 284.5 15.4219C285.156 13.7656 285.812 12.1562 286.469 10.5938C287.156 9.03125 287.812 7.82812 288.438 6.98438C289.125 7.42188 289.719 7.875 290.219 8.34375C290.75 8.78125 291.203 9.26562 291.578 9.79688C291.953 10.3281 292.25 10.9375 292.469 11.625C292.719 12.3125 292.891 13.125 292.984 14.0625C292.422 15.1562 291.875 16.2812 291.344 17.4375C290.844 18.5938 290.359 19.75 289.891 20.9062C289.266 22.4062 288.609 23.9062 287.922 25.4062C287.266 26.9062 286.531 28.3438 285.719 29.7188C284.906 31.0625 284 32.3125 283 33.4688C282 34.5938 280.844 35.5469 279.531 36.3281C279.188 36.2344 278.891 36.1875 278.641 36.1875C278.141 36.1875 277.719 36.3281 277.375 36.6094ZM314.922 32.0625C314.734 32.5938 314.453 33.1406 314.078 33.7031C313.734 34.2344 313.312 34.7188 312.812 35.1562C312.344 35.5625 311.812 35.9062 311.219 36.1875C310.625 36.4688 310 36.625 309.344 36.6562C308.938 36.5625 308.656 36.4531 308.5 36.3281C308.375 36.2344 308.234 36.1406 308.078 36.0469C307.984 35.9844 307.891 35.9375 307.797 35.9062C307.734 35.8438 307.672 35.7969 307.609 35.7656L307.047 35.5312L307.234 34.9219C307.297 34.6719 307.281 34.4844 307.188 34.3594C307.094 34.2031 306.906 34 306.625 33.75C306.531 33.6562 306.438 33.5625 306.344 33.4688C306.25 33.375 306.172 33.2812 306.109 33.1875L305.312 32.2969L306.578 31.9688C307.359 31.75 307.875 31.4688 308.125 31.125C308.406 30.7812 308.516 30.2031 308.453 29.3906C307.828 29.2656 307.297 29.25 306.859 29.3438C306.453 29.4375 306.031 29.5469 305.594 29.6719C305.031 29.8281 304.453 29.9688 303.859 30.0938C303.297 30.1875 302.672 30.2344 301.984 30.2344C301.734 30.2344 301.5 30.2344 301.281 30.2344C301.062 30.2031 300.828 30.1719 300.578 30.1406L300.109 30.0469C300.047 29.7031 299.984 29.5156 299.922 29.4844C299.859 29.4219 299.797 29.3594 299.734 29.2969C299.578 29.1406 299.406 28.9375 299.219 28.6875C299.062 28.4062 299.031 28.0625 299.125 27.6562C298.969 27.375 298.875 27.0938 298.844 26.8125C298.656 27.1875 298.516 27.5781 298.422 27.9844L298.234 28.4531L297.766 28.5469C297.703 28.5781 297.656 28.6562 297.625 28.7812C297.594 28.875 297.578 28.9531 297.578 29.0156L297.344 29.8125C297.281 29.875 297.219 29.9375 297.156 30C297.094 30.0312 297.031 30.0781 296.969 30.1406C296.906 30.4219 296.828 30.7031 296.734 30.9844C296.641 31.2656 296.547 31.5312 296.453 31.7812C296.297 32.1875 296.156 32.5938 296.031 33C295.938 33.375 295.906 33.75 295.938 34.125L295.75 34.6406C295.594 34.8281 295.422 34.9844 295.234 35.1094C295.047 35.2031 294.859 35.2969 294.672 35.3906C294.609 35.4531 294.516 35.5156 294.391 35.5781C294.297 35.6094 294.219 35.6406 294.156 35.6719L294.016 36.1875L293.453 36.2812C293.109 36.3438 292.859 36.3906 292.703 36.4219C292.578 36.4531 292.422 36.4688 292.234 36.4688L291.766 36.4219C291.422 36.1406 291.156 35.9219 290.969 35.7656C290.781 35.5781 290.562 35.4062 290.312 35.25C290.031 34.875 289.875 34.5938 289.844 34.4062C289.812 34.2188 289.781 34.0469 289.75 33.8906C289.688 33.7031 289.656 33.5469 289.656 33.4219C289.625 33.2969 289.578 33.2031 289.516 33.1406L288.906 32.5781L289.422 32.1562L289.469 31.3594C290.094 29.7656 290.75 28.2344 291.438 26.7656C292.156 25.2969 292.891 23.7969 293.641 22.2656C293.891 21.7656 294.125 21.2656 294.344 20.7656C294.594 20.2656 294.844 19.7656 295.094 19.2656C295.062 19.1719 295.047 19.0625 295.047 18.9375C295.047 18.8125 295.078 18.6719 295.141 18.5156C295.484 17.9844 295.766 17.5156 295.984 17.1094C296.203 16.6719 296.422 16.2344 296.641 15.7969C296.891 15.2656 297.141 14.75 297.391 14.25C297.672 13.75 298.016 13.2344 298.422 12.7031L299.172 12.375C299.266 12.3438 299.375 12.3125 299.5 12.2812C299.625 12.2188 299.766 12.1875 299.922 12.1875L300.625 12.2812C301.5 11.875 302.266 11.3125 302.922 10.5938C303.578 9.84375 304.25 8.95312 304.938 7.92188L305.406 7.26562L306.016 7.64062C306.172 7.73438 306.391 7.82812 306.672 7.92188C306.953 7.98438 307.25 8.0625 307.562 8.15625C308.125 8.28125 308.656 8.42188 309.156 8.57812C309.656 8.73438 310.062 8.96875 310.375 9.28125C310.562 9.78125 310.672 10.1562 310.703 10.4062C310.734 10.6562 310.781 10.9062 310.844 11.1562C310.938 11.6875 311.016 12.2188 311.078 12.75C311.172 13.2812 311.234 13.875 311.266 14.5312C311.422 15.0625 311.547 15.5938 311.641 16.125C311.766 16.625 311.875 17.1406 311.969 17.6719C312.125 18.4219 312.281 19.1562 312.438 19.875C312.594 20.5625 312.797 21.2188 313.047 21.8438C313.297 21.8438 313.453 21.8594 313.516 21.8906C313.672 21.8281 313.828 21.7812 313.984 21.75C314.172 21.7188 314.375 21.6875 314.594 21.6562L315.109 21.6094L315.297 22.0781C315.328 22.2344 315.484 22.3906 315.766 22.5469C316.172 22.5781 316.469 22.6719 316.656 22.8281C316.844 22.9531 317.016 23.0938 317.172 23.25C317.297 23.375 317.422 23.4688 317.547 23.5312L318.25 23.8125L317.875 24.5156C317.562 25.0781 317.109 25.625 316.516 26.1562C315.953 26.6562 315.312 27.0781 314.594 27.4219C314.625 27.6094 314.641 27.7969 314.641 27.9844C314.672 28.1406 314.719 28.3125 314.781 28.5C314.875 29.0312 314.953 29.5781 315.016 30.1406C315.078 30.7031 315.078 31.2812 315.016 31.875L314.922 32.0625ZM301.375 23.9531C302.312 23.8906 303.156 23.8281 303.906 23.7656C304.688 23.6719 305.547 23.5312 306.484 23.3438C306.266 22.4062 306.031 21.4375 305.781 20.4375C305.531 19.4062 305.266 18.3906 304.984 17.3906L304.703 17.8594C304.078 18.5156 303.469 19.25 302.875 20.0625C302.312 20.875 301.828 21.6406 301.422 22.3594C301.234 22.6406 301.047 22.9219 300.859 23.2031C300.672 23.4844 300.5 23.7656 300.344 24.0469C300.531 24.0156 300.703 24 300.859 24C301.047 24 301.219 23.9844 301.375 23.9531ZM325.562 31.125C325.219 32.375 324.906 33.3281 324.625 33.9844C324.375 34.6094 323.984 35.2656 323.453 35.9531C323.047 35.8906 322.766 35.9375 322.609 36.0938C322.453 36.25 322.281 36.3906 322.094 36.5156C321.812 36.5781 321.609 36.5781 321.484 36.5156C321.359 36.4531 321.25 36.375 321.156 36.2812C321.062 36.2188 320.938 36.1406 320.781 36.0469C320.656 35.9844 320.453 35.9531 320.172 35.9531C320.109 35.7031 320.031 35.4688 319.938 35.25C319.875 35.0312 319.672 34.9531 319.328 35.0156C319.391 34.7656 319.406 34.5625 319.375 34.4062C319.344 34.2188 319.297 34.0625 319.234 33.9375C319.203 33.7812 319.172 33.6406 319.141 33.5156C319.109 33.3594 319.125 33.1719 319.188 32.9531C319.031 32.9531 318.906 32.8438 318.812 32.625C318.719 32.4062 318.609 32.1875 318.484 31.9688C318.578 31.4062 318.672 30.875 318.766 30.375C318.859 29.875 318.969 29.4062 319.094 28.9688C319.25 28.5312 319.375 28.0938 319.469 27.6562C319.562 27.2188 319.516 26.7656 319.328 26.2969C319.453 26.3906 319.547 26.375 319.609 26.25C319.672 26.0938 319.719 25.9062 319.75 25.6875C319.781 25.4375 319.797 25.2031 319.797 24.9844C319.797 24.7344 319.781 24.5312 319.75 24.375C320.062 23.5625 320.312 22.7344 320.5 21.8906C320.719 21.0156 320.906 20.1562 321.062 19.3125C321.25 18.4688 321.438 17.6406 321.625 16.8281C321.812 16.0156 322.062 15.2656 322.375 14.5781C322.719 14.5156 323.094 14.5625 323.5 14.7188C323.938 14.8438 324.203 15.0156 324.297 15.2344C325.109 14.6094 325.828 13.8594 326.453 12.9844C327.078 12.0781 327.719 11.2031 328.375 10.3594C329.031 9.51562 329.75 8.76562 330.531 8.10938C331.344 7.45312 332.359 7.0625 333.578 6.9375C334.203 7.40625 334.891 7.89062 335.641 8.39062C336.422 8.85938 337.062 9.48438 337.562 10.2656C337.812 10.3906 338.016 10.5312 338.172 10.6875C338.359 10.8125 338.578 10.9531 338.828 11.1094V11.6719C339.203 12.0156 339.5 12.4219 339.719 12.8906C339.969 13.3281 340.188 13.8125 340.375 14.3438C340.562 14.8438 340.75 15.3594 340.938 15.8906C341.125 16.3906 341.344 16.875 341.594 17.3438C341.531 17.5 341.5 17.6406 341.5 17.7656C341.5 17.8594 341.516 17.9688 341.547 18.0938C341.609 18.2188 341.656 18.3438 341.688 18.4688C341.719 18.5938 341.719 18.7656 341.688 18.9844C341.594 20.3594 341.141 21.4688 340.328 22.3125C339.547 23.1562 338.594 23.8594 337.469 24.4219C336.344 24.9531 335.141 25.4062 333.859 25.7812C332.578 26.1562 331.422 26.5625 330.391 27C330.391 27.125 330.438 27.1875 330.531 27.1875C330.656 27.1875 330.703 27.2656 330.672 27.4219C331.422 27.8906 332.016 28.2656 332.453 28.5469C332.891 28.8281 333.297 29.0625 333.672 29.25C334.078 29.4375 334.5 29.6094 334.938 29.7656C335.406 29.8906 336.047 30.0469 336.859 30.2344C337.672 30.4219 338.297 30.5781 338.734 30.7031C339.203 30.7969 339.625 30.8906 340 30.9844C340.375 31.0469 340.75 31.1094 341.125 31.1719C341.531 31.2031 342.094 31.25 342.812 31.3125C343.094 31.5938 343.328 31.9375 343.516 32.3438C343.734 32.7188 343.875 33.1094 343.938 33.5156C344 33.8906 344.016 34.2656 343.984 34.6406C343.953 34.9844 343.844 35.2656 343.656 35.4844C343.688 35.5781 343.75 35.625 343.844 35.625C343.969 35.5938 344.094 35.5938 344.219 35.625C344.031 35.75 343.875 35.9062 343.75 36.0938C343.625 36.2812 343.5 36.4688 343.375 36.6562C343.25 36.8438 343.109 37 342.953 37.125C342.797 37.2812 342.578 37.375 342.297 37.4062C341.328 37.7812 340.109 37.7969 338.641 37.4531C337.172 37.1406 335.312 36.5469 333.062 35.6719C331.938 35.2344 331.016 34.8594 330.297 34.5469C329.609 34.2031 329 33.875 328.469 33.5625C327.969 33.2188 327.5 32.8594 327.062 32.4844C326.656 32.1094 326.156 31.6562 325.562 31.125ZM332.266 15.0469C331.922 15.5469 331.531 16 331.094 16.4062C330.688 16.8125 330.281 17.2344 329.875 17.6719C329.5 18.0781 329.156 18.5469 328.844 19.0781C328.531 19.5781 328.312 20.1719 328.188 20.8594C329.281 20.7344 330.422 20.4375 331.609 19.9688C332.797 19.4688 333.922 19 334.984 18.5625C334.859 17.5938 334.516 16.8125 333.953 16.2188C333.422 15.625 332.859 15.2344 332.266 15.0469ZM367.094 23.3438C367.062 23.5 367.031 23.6406 367 23.7656C366.969 23.8594 366.938 23.9531 366.906 24.0469C366.875 24.1406 366.859 24.2656 366.859 24.4219C366.859 24.5469 366.859 24.7188 366.859 24.9375C365.922 26.5938 364.734 27.9844 363.297 29.1094C361.891 30.2344 360.328 31.2344 358.609 32.1094C356.922 32.9531 355.156 33.7344 353.312 34.4531C351.469 35.1406 349.672 35.8906 347.922 36.7031C347.172 36.5156 346.594 36.2031 346.188 35.7656C345.812 35.3281 345.516 34.8281 345.297 34.2656C345.109 33.6719 344.969 33.0312 344.875 32.3438C344.812 31.625 344.75 30.8906 344.688 30.1406C344.781 29.7969 344.906 29.5156 345.062 29.2969C345.25 29.0469 345.344 28.7031 345.344 28.2656C345.594 27.4531 345.844 26.6562 346.094 25.875C346.344 25.0938 346.5 24.2969 346.562 23.4844C346.656 23.2344 346.828 23.0625 347.078 22.9688C347.234 21.4688 347.234 19.9531 347.078 18.4219C346.953 16.8594 346.703 15.4062 346.328 14.0625C346.359 13.75 346.391 13.5312 346.422 13.4062C346.484 13.25 346.484 13.1406 346.422 13.0781C346.391 12.8281 346.469 12.7031 346.656 12.7031C346.875 12.7031 347.094 12.7031 347.312 12.7031C347.312 12.2344 347.219 11.7656 347.031 11.2969C346.875 10.8281 346.719 10.2969 346.562 9.70312C346.781 9.23438 346.922 8.78125 346.984 8.34375C347.047 7.875 347.188 7.46875 347.406 7.125C349.094 7.65625 350.703 8.29688 352.234 9.04688C353.797 9.79688 355.328 10.3438 356.828 10.6875C357.953 11.5 359.109 12.3125 360.297 13.125C361.484 13.9062 362.562 14.7812 363.531 15.75C364.5 16.6875 365.312 17.7656 365.969 18.9844C366.625 20.2031 367 21.6562 367.094 23.3438ZM355.984 25.9219C356.641 25.6719 357.281 25.4062 357.906 25.125C358.562 24.8438 359.156 24.5312 359.688 24.1875C360.25 23.8125 360.75 23.3906 361.188 22.9219C361.625 22.4531 361.984 21.8906 362.266 21.2344C362.078 20.8594 361.828 20.5312 361.516 20.25C361.203 19.9375 360.891 19.6562 360.578 19.4062C360.266 19.125 359.953 18.8438 359.641 18.5625C359.359 18.2812 359.125 17.9375 358.938 17.5312C358.531 17.4688 358.172 17.3594 357.859 17.2031C357.547 17.0156 357.234 16.8438 356.922 16.6875C356.641 16.5 356.328 16.3281 355.984 16.1719C355.672 16.0156 355.297 15.9219 354.859 15.8906C354.172 15.5469 353.547 15.2969 352.984 15.1406C352.453 14.9844 352.047 14.7812 351.766 14.5312C351.547 14.5312 351.375 14.5781 351.25 14.6719C351.562 15.8594 351.797 16.9844 351.953 18.0469C352.109 19.0781 352.188 20.125 352.188 21.1875C352.219 22.2188 352.172 23.2812 352.047 24.375C351.922 25.4688 351.75 26.6562 351.531 27.9375C351.844 27.9062 352.125 27.8438 352.375 27.75C352.656 27.625 352.922 27.5 353.172 27.375C353.453 27.25 353.734 27.1406 354.016 27.0469C354.328 26.9219 354.688 26.8438 355.094 26.8125C355.188 26.625 355.312 26.4688 355.469 26.3438C355.656 26.2188 355.828 26.0781 355.984 25.9219ZM399.203 9.70312C399.766 9.29688 400.375 8.64062 401.031 7.73438C401.688 6.79688 402.375 5.875 403.094 4.96875C403.844 4.0625 404.594 3.28125 405.344 2.625C406.125 1.9375 406.906 1.64062 407.688 1.73438C408.188 2.85938 408.453 3.98438 408.484 5.10938C408.516 6.20312 408.406 7.45312 408.156 8.85938C407.875 9.20312 407.469 9.67188 406.938 10.2656C406.406 10.8594 405.812 11.5312 405.156 12.2812C404.531 13 403.875 13.75 403.188 14.5312C402.5 15.3125 401.844 16.0625 401.219 16.7812C400.625 17.5 400.094 18.1562 399.625 18.75C399.188 19.3438 398.891 19.8125 398.734 20.1562C398.297 20.625 397.703 21.2812 396.953 22.125C396.234 22.9688 395.484 23.8594 394.703 24.7969C393.922 25.7344 393.156 26.6562 392.406 27.5625C391.688 28.4375 391.094 29.1719 390.625 29.7656C390.594 29.9219 390.641 30.0625 390.766 30.1875C390.891 30.3125 390.984 30.4531 391.047 30.6094C390.703 30.9219 390.5 31.2188 390.438 31.5C390.375 31.75 390.359 32.0156 390.391 32.2969C390.422 32.5781 390.469 32.8594 390.531 33.1406C390.594 33.3906 390.609 33.6719 390.578 33.9844C390.359 34.1719 390.172 34.3906 390.016 34.6406C389.891 34.8906 389.75 35.1406 389.594 35.3906C389.469 35.6094 389.297 35.8281 389.078 36.0469C388.891 36.2656 388.641 36.4531 388.328 36.6094C387.672 36.5469 387.141 36.4531 386.734 36.3281C386.328 36.2344 385.844 36.1406 385.281 36.0469C384.75 35.6094 384.391 35.0781 384.203 34.4531C384.016 33.7969 383.938 33.1406 383.969 32.4844C383.969 31.7969 384.047 31.125 384.203 30.4688C384.328 29.7812 384.469 29.1875 384.625 28.6875C384.969 28.4688 384.984 28.3125 384.672 28.2188C384.797 27.7812 385.016 27.4219 385.328 27.1406C385.641 26.8281 385.797 26.5625 385.797 26.3438C386.016 26 386.438 25.4844 387.062 24.7969C387.688 24.0781 388.359 23.3125 389.078 22.5C389.828 21.6875 390.547 20.9062 391.234 20.1562C391.922 19.375 392.453 18.7656 392.828 18.3281C393.016 17.8281 393.438 17.1875 394.094 16.4062C394.781 15.5938 395.484 14.7656 396.203 13.9219C396.953 13.0781 397.625 12.2812 398.219 11.5312C398.844 10.7812 399.172 10.1719 399.203 9.70312ZM431.172 21.1875C431.172 21.5625 431.312 21.9062 431.594 22.2188C431.906 22.5 432.141 22.8281 432.297 23.2031C432.484 23.6406 432.531 24.0781 432.438 24.5156C432.375 24.9531 432.203 25.3438 431.922 25.6875C431.641 26.0312 431.266 26.3281 430.797 26.5781C430.359 26.8281 429.844 27 429.25 27.0938C428.875 26.9375 428.578 26.875 428.359 26.9062C428.172 26.9375 427.906 26.875 427.562 26.7188C427 27.0938 426.312 27.4688 425.5 27.8438C424.719 28.1875 423.953 28.2812 423.203 28.125C423.109 28.375 422.922 28.5 422.641 28.5C422.391 28.5 422.234 28.6406 422.172 28.9219C420.891 29.1406 419.641 29.4844 418.422 29.9531C417.203 30.4219 416.016 30.9375 414.859 31.5C413.703 32.0312 412.578 32.5781 411.484 33.1406C410.422 33.7031 409.391 34.1875 408.391 34.5938C407.953 34.4688 407.547 34.4844 407.172 34.6406C406.797 34.7656 406.406 34.8125 406 34.7812C406.094 34.6875 406.109 34.625 406.047 34.5938C405.984 34.5625 405.891 34.5469 405.766 34.5469C405.641 34.5156 405.5 34.5 405.344 34.5C405.219 34.4688 405.109 34.4062 405.016 34.3125C404.672 34.0938 404.422 33.9219 404.266 33.7969C404.078 33.6719 403.938 33.5781 403.844 33.5156C403.719 33.4531 403.594 33.375 403.469 33.2812C403.344 33.1875 403.172 33.0469 402.953 32.8594C403.078 32.5469 403.156 32.2969 403.188 32.1094C403.188 31.8906 403.172 31.7031 403.141 31.5469C403.109 31.3594 403.078 31.1719 403.047 30.9844C402.984 30.7969 402.969 30.5469 403 30.2344C404.719 29.1406 406.234 28.2812 407.547 27.6562C408.859 27 410.141 26.4375 411.391 25.9688C412.641 25.5 413.922 25.0625 415.234 24.6562C416.578 24.2188 418.125 23.6562 419.875 22.9688C419.156 22.5625 418.219 22.1875 417.062 21.8438C415.938 21.5 414.797 21.125 413.641 20.7188C412.516 20.2812 411.484 19.75 410.547 19.125C409.609 18.5 408.984 17.6875 408.672 16.6875C408.234 16.6562 407.844 16.4062 407.5 15.9375C407.188 15.4688 407.062 14.9219 407.125 14.2969C407.438 14.1094 407.719 13.9062 407.969 13.6875C408.25 13.4375 408.594 13.25 409 13.125C409.344 13.0625 409.781 13.0938 410.312 13.2188C410.875 13.3438 411.469 13.5156 412.094 13.7344C412.75 13.9531 413.422 14.1875 414.109 14.4375C414.828 14.6875 415.5 14.8906 416.125 15.0469C416.75 15.2031 417.422 15.3438 418.141 15.4688C418.891 15.5938 419.578 15.7812 420.203 16.0312C420.484 16.1562 420.719 16.3125 420.906 16.5C421.125 16.6562 421.375 16.7656 421.656 16.8281C422.219 16.9219 422.812 17.1094 423.438 17.3906C424.094 17.6406 424.75 17.9219 425.406 18.2344C426.062 18.5469 426.703 18.875 427.328 19.2188C427.984 19.5312 428.594 19.7969 429.156 20.0156C429.125 20.2031 429.328 20.4375 429.766 20.7188C430.203 21 430.672 21.1562 431.172 21.1875Z" fill="white"/>
</g>
<defs>
<filter id="filter0_d" x="0.998444" y="0.46875" width="434.486" height="40.231" filterUnits="userSpaceOnUse" color-interpolation-filters="sRGB">
<feFlood flood-opacity="0" result="BackgroundImageFix"/>
<feColorMatrix in="SourceAlpha" type="matrix" values="0 0 0 0 0 0 0 0 0 0 0 0 0 0 0 0 0 0 127 0"/>
<feOffset dx="3" dy="3"/>
<feColorMatrix type="matrix" values="0 0 0 0 0 0 0 0 0 0 0 0 0 0 0 0 0 0 0.13 0"/>
<feBlend mode="normal" in2="BackgroundImageFix" result="effect1_dropShadow"/>
<feBlend mode="normal" in="SourceGraphic" in2="effect1_dropShadow" result="shape"/>
</filter>
</defs>
</svg>
