<svg width="290" height="290" viewBox="0 0 290 290" fill="none" xmlns="http://www.w3.org/2000/svg">
<path d="M235.298 176.699C235.298 188.7 228.975 194.581 217.198 194.789V194.799H72.399V194.789C60.622 194.581 54.299 188.7 54.299 176.699C54.299 164.698 60.622 158.817 72.399 158.609V158.599H217.198V158.609C228.975 158.817 235.298 164.698 235.298 176.699V176.699ZM217.198 203.858V203.848H72.399V203.858C60.622 204.066 54.299 209.948 54.299 221.949C54.299 233.95 60.622 239.831 72.399 240.039V240.049H217.198V240.039C228.974 239.831 235.298 233.95 235.298 221.949C235.298 209.948 228.975 204.066 217.198 203.858ZM262.448 104.32V104.31C250.671 104.518 244.347 110.399 244.347 122.4V221.949C244.347 233.95 250.67 239.831 262.448 240.039V240.018C280.113 239.395 289.597 221.752 289.597 185.748V140.5C289.598 116.498 280.113 104.736 262.448 104.32V104.32ZM27.15 104.31V104.32C9.484 104.736 0 116.497 0 140.5V185.749C0 221.753 9.484 239.395 27.15 240.019V240.04C38.927 239.832 45.249 233.951 45.249 221.95V122.4C45.249 110.399 38.927 104.518 27.15 104.31V104.31ZM262.448 95.25C262.448 65.247 246.64 50.545 217.198 50.025V50H72.399V50.025C42.957 50.545 27.15 65.247 27.15 95.25V95.265C44.815 95.577 54.299 104.398 54.299 122.4C54.299 140.401 63.784 149.223 81.449 149.535V149.55H208.148V149.535C225.814 149.223 235.298 140.401 235.298 122.4C235.298 104.398 244.782 95.577 262.448 95.265V95.25Z" fill="#E42528"/>
</svg>
