<svg width="981" height="981" viewBox="0 0 981 981" fill="none" xmlns="http://www.w3.org/2000/svg">
<path d="M489.075 981L205.25 902.228L142 193H837L773.684 902.119L489.075 981V981Z" fill="#264DE4"/>
<path d="M719.911 857.232L774 251H490V921L719.911 857.232V857.232Z" fill="#2965F1"/>
<path d="M286.73 514.209L294.556 601.269H490V514.209H286.73ZM271 338L278.939 425.059H490V338H271V338ZM490 740.312L489.617 740.413L392.351 714.233L386.132 644.8H298.459L310.694 781.496L489.598 831L490 830.891V740.312Z" fill="#EBEBEB"/>
<path d="M306 0H411.291V44.0288H350.033V88.0577H411.296V132.084H306V0ZM432.352 0H537.645V38.2857H476.385V45.9423H537.645V134H432.355V93.7954H493.615V86.1388H432.349V0H432.352ZM558.706 0H664V38.2857H602.739V45.9423H664V134H558.706V93.7954H619.967V86.1388H558.709V0H558.706Z" fill="black"/>
<path d="M691.291 514.224L707 338H489.003V425.067H611.629L603.71 514.224H489.003V601.291H596.165L586.061 714.21L489 740.419V831L667.407 781.533L668.715 766.823L689.168 537.604L691.291 514.224V514.224Z" fill="white"/>
</svg>
