<svg width="266" height="264" viewBox="0 0 266 264" fill="none" xmlns="http://www.w3.org/2000/svg">
<path d="M57.4688 124.922H9.58594V166.688H64.6406V174H0.9375V71.625H64.2891V79.0078H9.58594V117.609H57.4688V124.922ZM104.859 128.789L125.391 97.9219H135.375L109.57 135.258L136.5 174H126.586L104.93 141.797L83.2734 174H73.3594L100.219 135.258L74.4141 97.9219H84.3281L104.859 128.789ZM212.156 136.734C212.156 148.594 209.531 158.016 204.281 165C199.031 171.938 192 175.406 183.188 175.406C172.781 175.406 164.812 171.75 159.281 164.438V203.25H150.914V97.9219H158.719L159.141 108.68C164.625 100.57 172.57 96.5156 182.977 96.5156C192.07 96.5156 199.195 99.9609 204.352 106.852C209.555 113.742 212.156 123.305 212.156 135.539V136.734ZM203.719 135.258C203.719 125.555 201.727 117.891 197.742 112.266C193.758 106.641 188.203 103.828 181.078 103.828C175.922 103.828 171.492 105.07 167.789 107.555C164.086 110.039 161.25 113.648 159.281 118.383V154.875C161.297 159.234 164.18 162.562 167.93 164.859C171.68 167.156 176.109 168.305 181.219 168.305C188.297 168.305 193.805 165.492 197.742 159.867C201.727 154.195 203.719 145.992 203.719 135.258ZM266.016 105.094C264.234 104.766 262.336 104.602 260.32 104.602C255.07 104.602 250.617 106.078 246.961 109.031C243.352 111.938 240.773 116.18 239.227 121.758V174H230.859V97.9219H239.086L239.227 110.016C243.68 101.016 250.828 96.5156 260.672 96.5156C263.016 96.5156 264.867 96.8203 266.227 97.4297L266.016 105.094Z" fill="#2D2D2D"/>
</svg>
