<svg width="200" height="200" viewBox="0 0 200 200" fill="none" xmlns="http://www.w3.org/2000/svg">
<g clip-path="url(#clip0)">
<g clip-path="url(#clip1)">
<rect width="201" height="200" fill="#ECF4FC"/>
<path d="M160.61 66.7163C154.35 56.0364 145.86 47.5812 135.136 41.3486C124.41 35.1157 112.701 32 99.9994 32C87.2998 32 75.5867 35.1166 64.8632 41.3486C54.1381 47.5808 45.6477 56.0364 39.3881 66.7163C33.1295 77.3959 30 89.0581 30 101.703C30 116.891 34.4502 130.55 43.3527 142.681C52.2543 154.813 63.7539 163.208 77.8504 167.866C79.4913 168.17 80.706 167.956 81.4958 167.232C82.2859 166.506 82.6805 165.598 82.6805 164.51C82.6805 164.329 82.6648 162.696 82.6345 159.609C82.6032 156.523 82.5885 153.83 82.5885 151.533L80.4921 151.894C79.1554 152.138 77.4692 152.241 75.4335 152.212C73.3986 152.183 71.2863 151.971 69.0992 151.576C66.9111 151.185 64.876 150.277 62.9922 148.855C61.1093 147.434 59.7727 145.572 58.9825 143.275L58.0711 141.186C57.4636 139.796 56.5072 138.251 55.2006 136.558C53.8939 134.863 52.5726 133.714 51.2359 133.109L50.5978 132.654C50.1726 132.352 49.778 131.987 49.4131 131.564C49.0485 131.141 48.7756 130.718 48.5933 130.294C48.4107 129.869 48.562 129.521 49.0489 129.248C49.5357 128.975 50.4155 128.843 51.6921 128.843L53.5143 129.114C54.7297 129.356 56.233 130.081 58.0261 131.292C59.8183 132.502 61.2916 134.074 62.4463 136.01C63.8445 138.491 65.5291 140.382 67.5049 141.683C69.4791 142.984 71.4695 143.634 73.4743 143.634C75.4791 143.634 77.2106 143.482 78.6696 143.181C80.1269 142.879 81.4942 142.424 82.7708 141.819C83.3176 137.764 84.8066 134.648 87.2363 132.47C83.7732 132.108 80.6597 131.562 77.8941 130.836C75.1302 130.109 72.274 128.93 69.3274 127.295C66.3793 125.662 63.9336 123.634 61.9898 121.215C60.0456 118.794 58.4501 115.617 57.2054 111.685C55.96 107.751 55.3372 103.213 55.3372 98.0706C55.3372 90.748 57.7378 84.5167 62.5382 79.3732C60.2895 73.8679 60.5018 67.6964 63.1757 60.8592C64.9379 60.314 67.5512 60.7231 71.0143 62.084C74.478 63.4455 77.014 64.6119 78.6249 65.5789C80.2357 66.5456 81.5264 67.3648 82.4988 68.0292C88.1509 66.4566 93.9837 65.6701 99.9987 65.6701C106.014 65.6701 111.848 66.4566 117.5 68.0292L120.964 65.852C123.332 64.3992 126.129 63.0679 129.347 61.8577C132.568 60.6481 135.03 60.3149 136.733 60.8601C139.466 67.6977 139.71 73.8689 137.46 79.3741C142.26 84.5176 144.662 90.7505 144.662 98.0716C144.662 103.214 144.037 107.766 142.793 111.73C141.548 115.695 139.939 118.869 137.965 121.26C135.989 123.651 133.527 125.663 130.581 127.296C127.633 128.93 124.776 130.109 122.012 130.836C119.247 131.562 116.134 132.109 112.671 132.472C115.829 135.193 117.409 139.49 117.409 145.359V164.507C117.409 165.595 117.789 166.504 118.549 167.229C119.308 167.954 120.508 168.167 122.149 167.863C136.247 163.205 147.747 154.81 156.648 142.678C165.548 130.547 170 116.889 170 101.7C169.997 89.0571 166.866 77.3959 160.61 66.7163Z" fill="#3681D5"/>
</g>
</g>
<defs>
<clipPath id="clip0">
<rect width="200" height="200" fill="white"/>
</clipPath>
<clipPath id="clip1">
<rect width="200" height="200" fill="white"/>
</clipPath>
</defs>
</svg>
