<svg width="895" height="898" viewBox="0 0 895 898" fill="none" xmlns="http://www.w3.org/2000/svg">
<path d="M765.267 176.607H447.004H128.734L188.38 823.681L447.004 897.006L705.526 823.681L765.267 176.607Z" fill="#E6A329"/>
<path d="M447 229.318V842.207L656.426 782.838L707.427 229.318H447Z" fill="#F1BF22"/>
<path d="M613.619 308.718H291.5L269.113 551.001L269.587 549.483H543.21L534.281 651.967L447.001 677.128L358.385 651.588L353.067 589.563H272.622L284.12 713.51L447.001 759.762L609.882 713.51L632.3 470.271H341.956L345.654 389.163H547.185L550.149 435.588H631.312L613.619 308.718Z" fill="white"/>
<path d="M353.07 589.564H272.625L284.115 713.511L447.004 759.66V677.129L358.388 651.589L353.07 589.564ZM447.004 308.719H291.496L269.109 551.001L269.591 549.484H447.004V470.272H353.157L356.855 389.164H447.004V308.719Z" fill="#EBEBEB"/>
<path d="M385.06 81.1587H328.457V121.808H385.06H415.365H425.622V0.998444H385.06V81.1587Z" fill="#231F20"/>
<path d="M565.55 1.61172H466.819V43.9203C480.016 57.1249 486.915 63.4467 506.022 82.5543C494.849 82.5543 466.819 82.5938 466.819 82.5938V121.188H565.55V82.5859L526.118 43.9203H565.55V1.61172Z" fill="#231F20"/>
</svg>
