<svg width="200" height="200" viewBox="0 0 200 200" fill="none" xmlns="http://www.w3.org/2000/svg">
<g clip-path="url(#clip0)">
<rect x="-1" width="201" height="200" fill="#ECF4FC"/>
<path d="M156.517 31H43.4832C36.589 31 31 36.589 31 43.4832V156.516C31 163.411 36.589 169 43.4832 169H156.516C163.411 169 169 163.411 169 156.516V43.4832C169 36.589 163.411 31 156.517 31ZM73.7031 150.158C73.7031 152.165 72.0767 153.791 70.0703 153.791H54.6063C52.5999 153.791 50.9735 152.165 50.9735 150.158V85.3341C50.9735 83.3276 52.5999 81.7013 54.6063 81.7013H70.0703C72.0767 81.7013 73.7031 83.3276 73.7031 85.3341V150.158ZM62.3383 75.5906C54.2248 75.5906 47.6474 69.0132 47.6474 60.8998C47.6474 52.7863 54.2248 46.2089 62.3383 46.2089C70.4517 46.2089 77.0291 52.7863 77.0291 60.8998C77.0291 69.0132 70.4521 75.5906 62.3383 75.5906ZM154.517 150.451C154.517 152.295 153.022 153.791 151.177 153.791H134.583C132.739 153.791 131.243 152.295 131.243 150.451V120.045C131.243 115.509 132.573 100.168 119.389 100.168C109.162 100.168 107.088 110.668 106.671 115.38V150.451C106.671 152.295 105.176 153.791 103.331 153.791H87.282C85.4374 153.791 83.9418 152.295 83.9418 150.451V85.0415C83.9418 83.1969 85.4374 81.7013 87.282 81.7013H103.331C105.176 81.7013 106.671 83.1969 106.671 85.0415V90.6969C110.463 85.006 116.099 80.6135 128.098 80.6135C154.669 80.6135 154.517 105.438 154.517 119.077V150.451Z" fill="#3681D5"/>
</g>
<defs>
<clipPath id="clip0">
<rect width="200" height="200" fill="white"/>
</clipPath>
</defs>
</svg>
