<svg width="200" height="200" viewBox="0 0 200 200" fill="none" xmlns="http://www.w3.org/2000/svg">
<path d="M45.4673 139.766C45.4673 146.582 40.0732 152 33.2158 152C26.3573 152 21 146.618 21 139.766C21 132.913 26.3573 127.533 33.2158 127.533C40.0732 127.534 45.4673 132.95 45.4673 139.766ZM23.893 139.73C23.893 145.291 27.8931 149.416 33.2515 149.416C38.5731 149.416 42.5743 145.254 42.5743 139.73C42.5743 134.242 38.5731 130.115 33.2515 130.115C27.8931 130.115 23.893 134.206 23.893 139.73Z" fill="#F7941E"/>
<path d="M67.7103 150.724C67.7103 151.417 67.1386 152 66.3873 152C65.9586 152 65.5666 151.745 65.1726 151.234L58.0618 141.498H52.7027V150.542C52.7027 151.344 52.0953 152 51.3093 152C50.4875 152 49.9159 151.343 49.9159 150.542V128.99C49.9159 128.188 50.5233 127.533 51.345 127.533H58.2057C62.7074 127.533 65.7442 130.34 65.7442 134.497C65.7442 137.706 63.9579 140.114 61.0639 141.062L67.2458 149.631C67.5296 149.994 67.7103 150.359 67.7103 150.724ZM52.7016 138.946H58.0975C61.0629 138.946 62.8493 137.269 62.8493 134.534C62.8493 131.835 61.0272 130.085 58.0975 130.085H52.7016V138.946Z" fill="#F7941E"/>
<path d="M88.8411 144.955C88.8411 149.183 85.9626 152 81.5929 152H73.5808C72.7484 152 72.1589 151.333 72.1589 150.479V129.052C72.1589 128.2 72.7484 127.533 73.5808 127.533H80.0323C83.9512 127.533 86.5522 130.016 86.5522 133.724C86.5522 135.763 85.7546 137.431 84.3674 138.543C87.1775 139.432 88.8411 141.73 88.8411 144.955ZM74.8649 130.127V137.728H79.7548C82.2528 137.728 83.7788 136.32 83.7788 133.91C83.7788 131.537 82.2875 130.128 79.7548 130.128H74.8649V130.127ZM86.0677 144.882C86.0677 142.065 84.2643 140.359 81.3165 140.359H74.8649V149.405H81.3165C84.2643 149.405 86.0677 147.7 86.0677 144.882Z" fill="#F7941E"/>
<path d="M115.533 128.468V151.064C115.533 151.604 115.138 152 114.6 152C114.062 152 113.667 151.604 113.667 151.064V131.526L105.954 143.508C105.667 143.94 105.38 144.156 104.949 144.156C104.555 144.156 104.232 143.94 103.945 143.508L96.2672 131.562V151.064C96.2672 151.604 95.8367 152 95.3345 152C94.7965 152 94.4019 151.604 94.4019 151.064V128.468C94.4019 127.93 94.7606 127.533 95.2628 127.533C95.6933 127.533 95.9444 127.714 96.3389 128.288L104.949 141.6L113.596 128.288C113.954 127.713 114.205 127.533 114.672 127.533C115.138 127.533 115.533 127.93 115.533 128.468Z" fill="#36374B"/>
<path d="M141.112 151.173C141.112 151.603 140.675 152 140.2 152C139.763 152 139.47 151.784 139.287 151.351L136.952 145.991H124.069L121.806 151.351C121.624 151.784 121.295 152 120.894 152C120.383 152 119.981 151.603 119.981 151.173C119.981 150.993 120.018 150.812 120.127 150.525L129.653 128.18C129.836 127.749 130.128 127.533 130.566 127.533C130.967 127.533 131.294 127.749 131.441 128.18L140.931 150.525C141.076 150.812 141.112 150.993 141.112 151.173ZM124.798 144.3H136.222L130.529 130.339L124.798 144.3Z" fill="#36374B"/>
<path d="M145.561 151.015V128.519C145.561 127.971 145.936 127.533 146.481 127.533H153.199C157.292 127.533 160.019 130.163 160.019 134.178C160.019 138.159 157.292 140.826 153.199 140.826H147.335V151.015C147.335 151.6 146.925 152 146.448 152C145.935 152.001 145.561 151.6 145.561 151.015ZM153.131 139.11C156.235 139.11 158.178 137.247 158.178 134.178C158.178 131.148 156.235 129.249 153.131 129.249H147.335V139.109H153.131V139.11Z" fill="#36374B"/>
<path d="M163.57 147.684C163.426 147.504 163.355 147.323 163.355 147.072C163.355 146.605 163.75 146.207 164.216 146.207C164.538 146.207 164.789 146.389 165.004 146.638C166.655 149.015 168.951 150.237 171.607 150.237C174.836 150.237 176.988 148.438 176.988 145.739C176.988 143.545 175.984 142.466 172.61 140.847L169.92 139.551C166.153 137.752 164.682 136.025 164.682 133.399C164.682 129.764 167.733 127.533 171.571 127.533C174.154 127.533 176.45 128.578 178.028 130.485C178.28 130.772 178.351 131.024 178.351 131.239C178.351 131.671 177.957 132.068 177.49 132.068C177.239 132.068 176.988 131.923 176.809 131.707C175.41 130.088 173.652 129.261 171.571 129.261C169.059 129.261 166.62 130.484 166.62 133.29C166.62 135.306 167.552 136.349 170.817 137.895L173.471 139.191C177.49 141.098 178.925 142.824 178.925 145.704C178.925 149.409 175.912 152 171.571 152C168.414 152.002 165.507 150.454 163.57 147.684Z" fill="#36374B"/>
<path d="M125.437 99.9201L125.348 99.7207L108.287 107.385L108.376 107.585L125.437 99.9201Z" fill="#F89520"/>
<path d="M108.003 108.626L107.748 107.958L107.931 107.861L125.287 98.6168L125.542 99.2875L125.359 99.3843L108.003 108.626Z" fill="#F89520"/>
<path d="M109.118 38.3151L82.7698 48.8159L82.8501 49.0175L109.199 38.5167L109.118 38.3151Z" fill="#F89520"/>
<path d="M82.4053 49.6822L82.1682 49.1131L109.738 38.5607L109.972 39.1298L109.781 39.2025L82.4053 49.6822Z" fill="#F89520"/>
<path d="M109.2 38.4517L108.982 38.4641L109.836 53.4738L110.054 53.4614L109.2 38.4517Z" fill="#F89520"/>
<path d="M110.217 53.6691L109.484 38.2537L108.866 38.2831L109.599 53.6985L110.217 53.6691Z" fill="#F89520"/>
<path d="M129.663 45.3847L109.851 53.3249L109.932 53.5263L129.744 45.5861L129.663 45.3847Z" fill="#F89520"/>
<path d="M130.022 45.7669L129.794 45.1933L109.591 53.2363L109.82 53.81L130.022 45.7669Z" fill="#F89520"/>
<path d="M129.759 45.4L109.232 38.3239L109.161 38.529L129.688 45.6051L129.759 45.4Z" fill="#F89520"/>
<path d="M130.03 45.2734L109.124 38.0668L108.924 38.649L129.829 45.8557L130.03 45.2734Z" fill="#F89520"/>
<path d="M82.863 49.0315L82.7715 48.8329L63.9246 57.5146L64.016 57.7131L82.863 49.0315Z" fill="#F89520"/>
<path d="M83.1701 49.1165L82.9114 48.5541L63.6995 57.3892L63.9582 57.9516L83.1701 49.1165Z" fill="#F89520"/>
<path d="M76.3923 40.6248L76.2159 40.4958L63.8069 57.4642L63.9834 57.5933L76.3923 40.6248Z" fill="#F89520"/>
<path d="M64.845 57.4673L64.3738 57.1269L76.1333 40.785L76.6075 41.1224L76.4994 41.2738L64.845 57.4673Z" fill="#F89520"/>
<path d="M64.5908 78.4029L64.2733 57.382L63.6559 57.3913L63.9734 78.4122L64.5908 78.4029Z" fill="#F89520"/>
<path d="M80.0602 78.3249L64.3054 78.087L64.3021 78.3056L80.0569 78.5435L80.0602 78.3249Z" fill="#F89520"/>
<path d="M80.2712 78.1253L64.1191 77.8814L64.1098 78.4988L80.2619 78.7427L80.2712 78.1253Z" fill="#F89520"/>
<path d="M80.1163 78.3933L64.0505 57.5331L63.8774 57.6665L79.9431 78.5267L80.1163 78.3933Z" fill="#F89520"/>
<path d="M79.49 78.5981L79.3762 78.4433L64.3738 57.8411L64.8278 57.4673L79.9439 78.2306L79.49 78.5981Z" fill="#F89520"/>
<path d="M82.9916 48.9358L82.7761 48.9108L79.2539 79.2809L79.4694 79.3059L82.9916 48.9358Z" fill="#F89520"/>
<path d="M80.4521 80.8224L79.9439 80.7507L79.9624 80.5439L82.7722 48.5701L83.2804 48.6418L83.2618 48.8486L80.4521 80.8224Z" fill="#F89520"/>
<path d="M97.7081 64.6681L82.9022 48.8392L82.7414 48.9896L97.5473 64.8185L97.7081 64.6681Z" fill="#F89520"/>
<path d="M97.9861 64.6773L82.9077 48.5571L82.4568 48.9788L97.5352 65.0991L97.9861 64.6773Z" fill="#F89520"/>
<path d="M110.003 53.5775L109.857 53.4153L97.4837 64.5975L97.6303 64.7597L110.003 53.5775Z" fill="#F89520"/>
<path d="M97.0939 65.2523L96.6262 64.7902L96.7915 64.6555L110.618 53.0187L111.084 53.4776L97.0939 65.2523Z" fill="#F89520"/>
<path d="M133.11 67.1087L109.96 53.3654L109.849 53.5534L132.998 67.2966L133.11 67.1087Z" fill="#F89520"/>
<path d="M133.019 67.4766L132.851 67.3746L109.972 53.5492L110.28 53.0187L133.327 66.9461L133.019 67.4766Z" fill="#F89520"/>
<path d="M133.181 67.3197L133.001 67.1963L115.951 92.1216L116.132 92.245L133.181 67.3197Z" fill="#F89520"/>
<path d="M117.131 93.0561L116.645 92.6949L116.752 92.5258L132.846 66.3645L133.327 66.7208L133.223 66.8948L117.131 93.0561Z" fill="#F89520"/>
<path d="M96.7018 64.3946L96.5602 64.2281L79.9392 78.3641L80.0808 78.5306L96.7018 64.3946Z" fill="#F89520"/>
<path d="M96.9696 64.344L96.5687 63.8744L79.6725 78.3L80.0734 78.7696L96.9696 64.344Z" fill="#F89520"/>
<path d="M91.4958 86.0686L80.0955 78.3223L79.9726 78.503L91.373 86.2494L91.4958 86.0686Z" fill="#F89520"/>
<path d="M91.7932 86.0188L80.0603 78.0464L79.7133 78.5571L91.4462 86.5294L91.7932 86.0188Z" fill="#F89520"/>
<path d="M97.1395 64.5739L96.9294 64.5194L91.3163 86.167L91.5263 86.2214L97.1395 64.5739Z" fill="#F89520"/>
<path d="M91.5902 87.4953L91.0654 87.3353L96.1 65.2523L96.6262 65.4043L96.5827 65.5978L91.5902 87.4953Z" fill="#F89520"/>
<path d="M116.184 92.0788L91.487 86.0456L91.4351 86.2579L116.132 92.2911L116.184 92.0788Z" fill="#F89520"/>
<path d="M116.371 91.9628L91.2853 85.8322L91.1388 86.4319L116.224 92.5626L116.371 91.9628Z" fill="#F89520"/>
<path d="M91.5974 86.2013L91.3874 86.1406L86.7514 102.19L86.9614 102.251L91.5974 86.2013Z" fill="#F89520"/>
<path d="M91.7984 86.0691L91.2043 85.9007L86.5399 102.357L87.1339 102.526L91.7984 86.0691Z" fill="#F89520"/>
<path d="M80.0779 78.3985L79.8687 78.4562L86.5193 102.538L86.7285 102.48L80.0779 78.3985Z" fill="#F89520"/>
<path d="M86.0642 103.065L86.0168 102.865L79.9439 77.6514L80.495 77.486L80.5425 77.6861L86.6168 102.897L86.0642 103.065Z" fill="#F89520"/>
<path d="M86.5551 102.483L71.6656 95.1572L71.5691 95.3533L86.4586 102.679L86.5551 102.483Z" fill="#F89520"/>
<path d="M86.3447 103.065L71.0468 95.8168L71.3173 95.2804L71.4982 95.3667L86.6168 102.528L86.3447 103.065Z" fill="#F89520"/>
<path d="M64.3405 78.2011L64.1417 78.2881L71.5789 95.2892L71.7777 95.2022L64.3405 78.2011Z" fill="#F89520"/>
<path d="M71.613 95.2804L71.5377 95.0954L64.3738 77.7337L64.9182 77.486L64.9935 77.6726L72.1589 95.0342L71.613 95.2804Z" fill="#F89520"/>
<path d="M79.8232 78.7164L79.6271 78.6199L71.4832 95.1715L71.6793 95.268L79.8232 78.7164Z" fill="#F89520"/>
<path d="M71.6127 96.3925L71.0468 96.0953L79.3764 77.486L79.9439 77.7797L79.8561 77.9791L71.6127 96.3925Z" fill="#F89520"/>
<path d="M108.37 107.344L86.9034 102.118L86.8517 102.331L108.319 107.556L108.37 107.344Z" fill="#F89520"/>
<path d="M108.716 108.626L86.6168 103.628L86.7669 103.065L86.9621 103.11L108.86 108.061L108.716 108.626Z" fill="#F89520"/>
<path d="M116.632 92.7573L116.44 92.6516L108.269 107.434L108.46 107.54L116.632 92.7573Z" fill="#F89520"/>
<path d="M116.893 92.6716L116.355 92.3728L107.966 107.49L108.505 107.789L116.893 92.6716Z" fill="#F89520"/>
<path d="M125.44 99.7333L116.559 92.6314L116.423 92.8021L125.303 99.904L125.44 99.7333Z" fill="#F89520"/>
<path d="M125.729 99.6618L116.536 92.3105L116.15 92.7928L125.344 100.144L125.729 99.6618Z" fill="#F89520"/>
<path d="M136.935 83.3281L136.757 83.2038L125.261 99.658L125.439 99.7823L136.935 83.3281Z" fill="#F89520"/>
<path d="M124.939 99.729L124.43 99.3626L124.541 99.196L136.152 81.9346L136.664 82.2992L124.939 99.729Z" fill="#F89520"/>
<path d="M136.859 83.3501L136.766 83.1522L116.518 92.6399L116.611 92.8378L136.859 83.3501Z" fill="#F89520"/>
<path d="M137.121 83.4489L136.86 82.8874L116.217 92.4635L116.478 93.0251L137.121 83.4489Z" fill="#F89520"/>
<path d="M133.124 67.187L132.912 67.2352L136.484 82.9091L136.696 82.8608L133.124 67.187Z" fill="#F89520"/>
<path d="M136.921 82.9967L133.272 66.9329L132.67 67.0696L136.318 83.1335L136.921 82.9967Z" fill="#F89520"/>
<path d="M129.448 45.5299L129.233 45.5657L132.831 67.2383L133.047 67.2025L129.448 45.5299Z" fill="#F89520"/>
<path d="M132.723 67.4766L132.689 67.2779L128.878 45.3394L129.483 45.2336L129.518 45.4308L133.327 67.366L132.723 67.4766Z" fill="#F89520"/>
<path d="M129.342 45.5237L129.141 45.6094L137.222 64.5638L137.423 64.4781L129.342 45.5237Z" fill="#F89520"/>
<path d="M137.2 65.2523L128.878 45.4784L129.456 45.2336L129.535 45.4213L137.776 65.006L137.2 65.2523Z" fill="#F89520"/>
<path d="M137.377 64.5584L137.159 64.5475L136.222 83.3425L136.44 83.3534L137.377 64.5584Z" fill="#F89520"/>
<path d="M137.576 64.3325L136.961 64.3013L135.989 83.4923L136.604 83.5235L137.576 64.3325Z" fill="#F89520"/>
<path d="M129.732 45.4091L114.972 35.4711L114.85 35.6524L129.61 45.5904L129.732 45.4091Z" fill="#F89520"/>
<path d="M128.553 45.2336L128.399 45.1289L114.421 35.7061L114.742 35.2243L114.897 35.3291L128.878 44.7548L128.553 45.2336Z" fill="#F89520"/>
<path d="M110.395 53.292L110.188 53.2267L103.082 75.7314L103.289 75.7967L110.395 53.292Z" fill="#F89520"/>
<path d="M110.619 53.1456L110.032 52.9603L102.808 75.8475L103.395 76.0329L110.619 53.1456Z" fill="#F89520"/>
<path d="M80.0516 77.8905L69.2249 71.8065L69.1178 71.9971L79.9445 78.081L80.0516 77.8905Z" fill="#F89520"/>
<path d="M79.6768 77.486L79.5266 77.4053L69.9346 72.3638L70.1989 71.9252L70.3491 72.0059L79.9439 77.0487L79.6768 77.486Z" fill="#F89520"/>
<path d="M64.0965 57.5266L63.8901 57.5985L68.7616 71.5765L68.968 71.5046L64.0965 57.5266Z" fill="#F89520"/>
<path d="M69.1922 71.6582L64.1744 57.3088L63.5916 57.5126L68.6094 71.862L69.1922 71.6582Z" fill="#F89520"/>
<path d="M109.863 38.6325L109.663 38.715L120.826 65.8899L121.027 65.8074L109.863 38.6325Z" fill="#F89520"/>
<path d="M121.622 65.2523L121.543 65.0744L109.972 38.7877L110.554 38.5607L122.206 65.0254L121.622 65.2523Z" fill="#F89520"/>
<path d="M121.044 65.8563L120.831 65.8173L115.848 93.1273L116.061 93.1663L121.044 65.8563Z" fill="#F89520"/>
<path d="M117.116 93.0561L116.645 92.9444L116.673 92.7465L120.622 65.2523L121.093 65.364L121.066 65.5602L117.116 93.0561Z" fill="#F89520"/>
<path d="M88.2443 108.573L71.7318 95.1602L71.5929 95.3311L88.1055 108.744L88.2443 108.573Z" fill="#F89520"/>
<path d="M88.5145 108.54L71.6936 94.8767L71.3043 95.356L88.1252 109.019L88.5145 108.54Z" fill="#F89520"/>
<path d="M108.292 107.365L88.1069 108.536L88.1196 108.754L108.305 107.584L108.292 107.365Z" fill="#F89520"/>
<path d="M108.552 107.766L108.519 107.151L87.9297 108.271L87.9632 108.886L108.552 107.766Z" fill="#F89520"/>
<path d="M120.492 66.269L120.396 66.0743L102.784 74.7402L102.88 74.9348L120.492 66.269Z" fill="#F89520"/>
<path d="M103.561 75.2617L103.299 74.6729L103.472 74.5795L120.824 65.2523L121.093 65.8394L103.561 75.2617Z" fill="#F89520"/>
<path d="M136.32 82.4981L120.254 65.8533L120.099 66.0029L136.165 82.6477L136.32 82.4981Z" fill="#F89520"/>
<path d="M136.639 82.4618L120.295 65.5322L119.851 65.9611L136.194 82.8906L136.639 82.4618Z" fill="#F89520"/>
<path d="M103.418 75.7063L103.203 75.7437L108.6 106.785L108.816 106.748L103.418 75.7063Z" fill="#F89520"/>
<path d="M109.349 107.514L109.312 107.32L103.299 76.4875L103.92 76.3738L103.959 76.5696L109.972 107.404L109.349 107.514Z" fill="#F89520"/>
<path d="M74.8796 40.3731C74.1068 39.8962 74.252 39.1958 75.2057 38.8094C76.1595 38.422 77.5619 38.4955 78.3347 38.9725C79.1094 39.4503 78.9624 40.1507 78.0067 40.5372C77.0529 40.9236 75.6524 40.8501 74.8796 40.3731Z" fill="#36374B"/>
<path d="M115.319 37.2581C114.193 37.7556 112.882 37.2449 112.386 36.1198C111.89 34.9986 112.399 33.6851 113.523 33.1895C114.648 32.6938 115.959 33.2045 116.455 34.3258C116.951 35.4508 116.442 36.7643 115.319 37.2581Z" fill="#36374B"/>
<path d="M109.757 40.5953C108.634 41.091 107.323 40.5821 106.825 39.4568C106.33 38.3353 106.838 37.0216 107.963 36.5259C109.086 36.0302 110.399 36.541 110.895 37.6625C111.39 38.7877 110.88 40.0996 109.757 40.5953Z" fill="#36374B"/>
<path d="M130.887 48.3329C129.764 48.9525 128.451 48.3164 127.956 46.91C127.46 45.5082 127.971 43.8661 129.094 43.2465C130.217 42.6269 131.53 43.263 132.025 44.6671C132.521 46.0713 132.012 47.711 130.887 48.3329Z" fill="#36374B"/>
<path d="M110.869 56.117C109.746 56.7389 108.432 56.1005 107.936 54.6942C107.443 53.2926 107.951 51.6507 109.075 51.0312C110.198 50.4117 111.512 51.05 112.007 52.4516C112.501 53.8579 111.994 55.4975 110.869 56.117Z" fill="#36374B"/>
<path d="M83.0663 50.6992C81.9411 50.9478 80.6294 50.6926 80.1337 50.1303C79.638 49.5681 80.1469 48.9126 81.2701 48.6649C82.3953 48.4172 83.7071 48.6715 84.2027 49.2328C84.6984 49.795 84.1896 50.4505 83.0663 50.6992Z" fill="#36374B"/>
<path d="M69.72 72.8953C68.5969 73.267 67.2835 72.884 66.7879 72.0416C66.2923 71.1993 66.8011 70.2156 67.9241 69.8438C69.0491 69.4707 70.3607 69.8537 70.8581 70.6961C71.3518 71.5385 70.843 72.5222 69.72 72.8953Z" fill="#36374B"/>
<path d="M81.1725 80.6327C80.3304 81.1283 79.3469 80.6196 78.9738 79.4946C78.6022 78.3715 78.9851 77.06 79.8273 76.5644C80.6695 76.0669 81.6529 76.5776 82.026 77.7007C82.3976 78.8256 82.0161 80.1353 81.1725 80.6327Z" fill="#36374B"/>
<path d="M97.0749 66.2216C96.5134 66.5947 95.8567 66.2117 95.6089 65.368C95.3611 64.5257 95.6155 63.542 96.178 63.1703C96.7395 62.7986 97.3953 63.1802 97.644 64.0225C97.8909 64.8648 97.6365 65.8499 97.0749 66.2216Z" fill="#36374B"/>
<path d="M103.416 76.2316C102.573 76.6031 101.588 76.2217 101.216 75.3783C100.846 74.5363 101.226 73.5517 102.07 73.1802C102.913 72.8072 103.897 73.1901 104.27 74.0334C104.64 74.8754 104.258 75.8586 103.416 76.2316Z" fill="#36374B"/>
<path d="M92.295 88.4654C91.4511 88.8371 90.4673 88.4541 90.0956 87.6117C89.7238 86.7694 90.1055 85.7856 90.9479 85.4139C91.7918 85.0408 92.7756 85.4238 93.1474 86.2648C93.5191 87.1086 93.1375 88.0908 92.295 88.4654Z" fill="#36374B"/>
<path d="M116.431 93.9787C115.306 94.4745 113.994 93.9637 113.497 92.8403C113.003 91.7169 113.512 90.4051 114.637 89.9094C115.76 89.4137 117.072 89.9226 117.567 91.0441C118.063 92.1694 117.554 93.4811 116.431 93.9787Z" fill="#36374B"/>
<path d="M121.99 67.3818C120.867 67.6296 119.554 67.3752 119.059 66.8126C118.563 66.252 119.074 65.5953 120.197 65.3475C121.32 65.0987 122.633 65.355 123.128 65.9156C123.624 66.4781 123.113 67.134 121.99 67.3818Z" fill="#36374B"/>
<path d="M133.112 69.5112C131.988 70.0069 130.675 69.498 130.179 68.3729C129.686 67.2515 130.194 65.9378 131.318 65.4421C132.441 64.9464 133.754 65.4553 134.25 66.5786C134.745 67.7018 134.235 69.0155 133.112 69.5112Z" fill="#36374B"/>
<path d="M137.892 66.2222C137.05 66.5939 136.066 66.2123 135.693 65.3685C135.323 64.5275 135.703 63.5424 136.547 63.1707C137.389 62.7976 138.373 63.182 138.746 64.023C139.116 64.8668 138.736 65.8505 137.892 66.2222Z" fill="#36374B"/>
<path d="M137.112 85.1288C136.551 85.5004 135.894 85.1189 135.646 84.2755C135.398 83.4335 135.654 82.4487 136.215 82.0772C136.777 81.7042 137.433 82.0885 137.681 82.9305C137.928 83.7739 137.675 84.7572 137.112 85.1288Z" fill="#36374B"/>
<path d="M126.439 101.715C125.316 102.337 124.003 101.699 123.507 100.293C123.012 98.8897 123.521 97.2485 124.645 96.6292C125.768 96.01 127.081 96.6481 127.577 98.0491C128.072 99.4571 127.563 101.098 126.439 101.715Z" fill="#36374B"/>
<path d="M110.089 108.531C109.245 108.779 108.26 108.524 107.89 107.962C107.518 107.401 107.9 106.744 108.742 106.497C109.586 106.249 110.57 106.504 110.942 107.066C111.313 107.628 110.933 108.284 110.089 108.531Z" fill="#36374B"/>
<path d="M88.6256 103.988C87.5027 104.484 86.1895 103.973 85.694 102.85C85.1985 101.727 85.7091 100.416 86.832 99.9184C87.9549 99.4229 89.2681 99.9335 89.7636 101.056C90.2591 102.179 89.7504 103.491 88.6256 103.988Z" fill="#36374B"/>
<path d="M88.958 109.643C88.1141 109.891 87.1303 109.637 86.7585 109.074C86.3882 108.514 86.7684 107.857 87.6123 107.609C88.4548 107.36 89.4386 107.617 89.8118 108.177C90.1821 108.74 89.8005 109.396 88.958 109.643Z" fill="#36374B"/>
<path d="M72.2759 96.2495C71.4322 96.6225 70.4486 96.241 70.0769 95.3962C69.7052 94.5543 70.0868 93.5697 70.9291 93.1981C71.7728 92.8266 72.7564 93.2094 73.1281 94.05C73.5012 94.8947 73.1182 95.8766 72.2759 96.2495Z" fill="#36374B"/>
<path d="M65.1542 80.6328C64.8734 81.1283 64.5454 80.6196 64.4215 79.4948C64.2971 78.3738 64.4248 77.0606 64.7056 76.5632C64.9865 76.0677 65.3144 76.5783 65.4388 77.7012C65.5623 78.826 65.4351 80.1354 65.1542 80.6328Z" fill="#36374B"/>
<path d="M64.8222 60.614C64.2607 61.1097 63.6051 60.6008 63.3564 59.4757C63.1086 58.3524 63.3639 57.0406 63.9254 56.5449C64.4869 56.0492 65.1426 56.5581 65.3913 57.6814C65.639 58.8047 65.3837 60.1165 64.8222 60.614Z" fill="#36374B"/>
</svg>
