<svg width="732" height="732" viewBox="0 0 732 732" fill="none" xmlns="http://www.w3.org/2000/svg">
<path fill-rule="evenodd" clip-rule="evenodd" d="M477.057 220.261C510.415 253.619 536.432 279.636 548.239 291.443H597.483V512.65H668.665V291.443H732.432V220.261H477.057ZM321.901 220.508V414.034C321.901 474.154 371.519 523.773 431.64 523.773C491.76 523.773 541.131 474.154 541.131 414.034V307.837L469.949 236.655V414.034C469.949 435.951 453.556 452.591 431.64 452.591C409.723 452.591 393.083 435.951 393.083 414.034V220.508H321.901ZM157.293 208.645C70.7667 208.645 -0.394531 279.806 -0.394531 366.332C-0.394531 452.859 70.7666 523.773 157.293 523.773C184.652 523.773 210.44 516.673 232.924 504.247L171.134 442.457C166.657 443.242 162.02 443.693 157.293 443.693C114.101 443.693 79.685 409.524 79.685 366.332C79.685 323.14 114.101 288.971 157.293 288.971C200.485 288.971 234.654 323.14 234.654 366.332C234.654 373.954 233.435 381.168 231.441 388.082L213.892 370.534H113.299L254.426 511.662H355.02L291.253 447.895C305.943 424.052 314.733 396.22 314.733 366.332C314.733 279.806 243.819 208.645 157.293 208.645Z" fill="#003B62"/>
</svg>
