<svg width="200" height="200" viewBox="0 0 200 200" fill="none" xmlns="http://www.w3.org/2000/svg">
<path fill-rule="evenodd" clip-rule="evenodd" d="M127.319 64.8015C135.376 72.8465 141.66 79.121 144.512 81.9685H156.406V135.317H173.598V81.9685H189V64.8015H127.319ZM89.8442 64.861V111.534C89.8442 126.033 101.828 138 116.35 138C130.87 138 142.795 126.033 142.795 111.534V85.9223L125.602 68.7552V111.534C125.602 116.82 121.643 120.833 116.35 120.833C111.056 120.833 107.037 116.82 107.037 111.534V64.861H89.8442ZM50.0864 62C29.1876 62 12 79.162 12 100.03C12 120.898 29.1876 138 50.0864 138C56.6944 138 62.923 136.288 68.3536 133.291L53.4294 118.389C52.348 118.578 51.2281 118.687 50.0864 118.687C39.6542 118.687 31.3417 110.446 31.3417 100.03C31.3417 89.613 39.6542 81.3724 50.0864 81.3724C60.5185 81.3724 68.7714 89.613 68.7714 100.03C68.7714 101.868 68.477 103.608 67.9954 105.275L63.7567 101.043H39.4605L73.5469 135.079H97.8435L82.4418 119.7C85.9899 113.95 88.1129 107.238 88.1129 100.03C88.1129 79.162 70.985 62 50.0864 62Z" fill="#226DB0"/>
</svg>
