<svg width="562" height="562" viewBox="0 0 562 562" fill="none" xmlns="http://www.w3.org/2000/svg">
<path d="M281 330.588C308.725 330.588 331.2 308.112 331.2 280.388C331.2 252.663 308.725 230.188 281 230.188C253.275 230.188 230.8 252.663 230.8 280.388C230.8 308.112 253.275 330.588 281 330.588Z" fill="#00D8FF"/>
<path d="M281 395.388C210.5 395.388 148.9 387.088 102.8 371.288C72.9 361.088 47.5 347.488 29.4 331.988C10.2 315.588 0 297.688 0 280.388C0 247.188 36.4 214.688 97.5 193.488C147.5 176.088 212.7 166.388 280.9 166.388C347.9 166.388 412.2 175.788 461.9 192.988C491 202.988 515.5 215.988 532.9 230.388C551.8 246.188 561.8 263.488 561.8 280.388C561.8 314.888 521.1 349.788 455.5 371.488C409.1 386.888 347.1 395.388 281 395.388ZM281 190.388C216.3 190.388 152.3 199.788 105.5 216.088C49.3 235.688 24.1 262.488 24.1 280.388C24.1 298.988 51.2 328.287 110.6 348.587C154.2 363.487 213.2 371.388 281 371.388C344.6 371.388 403.9 363.387 448 348.688C509.7 328.188 537.9 298.888 537.9 280.388C537.9 270.888 530.7 259.688 517.6 248.788C502.5 236.188 480.5 224.688 454.2 215.588C406.9 199.388 345.4 190.388 281 190.388Z" fill="#00D8FF"/>
<path d="M167.1 530.588C156.9 530.588 147.9 528.388 140.3 523.988C111.6 507.388 101.6 459.588 113.7 396.088C123.6 343.988 147.8 282.788 181.9 223.688C215.4 165.688 255.6 114.688 295.3 80.1876C318.5 59.9876 342 45.1876 363.2 37.3876C386.3 28.8876 406.3 28.8876 420.9 37.2876C450.8 54.4876 460.7 107.288 446.7 174.888C436.8 222.888 413.2 280.788 380.2 338.088C345 399.088 307 448.288 270.3 480.388C246.5 501.188 222 516.388 199.6 524.288C187.9 528.488 176.9 530.588 167.1 530.588ZM192.2 229.688L202.6 235.688C170.3 291.688 146.4 351.788 137.2 400.588C126.1 459.088 136.8 494.288 152.2 503.188C156 505.388 161 506.588 167.1 506.588C187 506.588 218.3 493.988 254.5 462.388C289.2 432.088 325.5 384.888 359.4 326.188C391.2 271.088 413.8 215.688 423.2 170.188C436.3 106.488 425 67.4876 408.9 58.1876C400.7 53.4876 387.4 54.0876 371.4 59.9876C352.9 66.7876 332 80.0876 311 98.3876C273.3 131.188 234.8 179.988 202.6 235.788L192.2 229.688Z" fill="#00D8FF"/>
<path d="M394.9 530.888C367.7 530.888 333.2 514.488 297.2 483.488C257 448.888 216.1 397.388 181.9 338.288C148.3 280.288 124.3 219.988 114.2 168.288C108.3 138.088 107.2 110.388 111 88.0876C115.2 63.7876 125.1 46.4876 139.8 37.9876C169.6 20.6876 220.3 38.4876 271.9 84.3876C308.5 116.888 346.9 166.288 380 223.488C415.3 284.488 439 341.988 448.4 389.788C454.5 420.788 455.5 449.588 451.2 472.988C446.6 497.888 436.2 515.588 421.2 524.288C413.7 528.688 404.8 530.888 394.9 530.888ZM202.7 326.288C235.1 382.288 275.3 432.988 312.9 465.288C358 504.088 393.8 512.488 409.3 503.488C425.4 494.188 437.2 456.088 425 394.488C416 349.288 393.3 294.288 359.3 235.588C327.4 180.488 290.7 133.188 256 102.388C207.4 59.1876 168 49.4876 151.9 58.7876C143.7 63.4876 137.6 75.3876 134.7 92.1876C131.4 111.588 132.4 136.388 137.8 163.688C147.4 212.788 170.4 270.488 202.7 326.288Z" fill="#00D8FF"/>
</svg>
