<svg width="417" height="417" viewBox="0 0 417 417" fill="none" xmlns="http://www.w3.org/2000/svg">
<path d="M37.4297 216.586H13.3828V258H-0.1875V155.625H33.7031C45.2344 155.625 54.0938 158.25 60.2812 163.5C66.5156 168.75 69.6328 176.391 69.6328 186.422C69.6328 192.797 67.8984 198.352 64.4297 203.086C61.0078 207.82 56.2266 211.359 50.0859 213.703L74.1328 257.156V258H59.6484L37.4297 216.586ZM13.3828 205.547H34.125C40.8281 205.547 46.1484 203.812 50.0859 200.344C54.0703 196.875 56.0625 192.234 56.0625 186.422C56.0625 180.094 54.1641 175.242 50.3672 171.867C46.6172 168.492 41.1797 166.781 34.0547 166.734H13.3828V205.547ZM106.055 155.625L139.523 239.156L172.992 155.625H190.5V258H177V218.133L178.266 175.102L144.656 258H134.32L100.781 175.312L102.117 218.133V258H88.6172V155.625H106.055ZM236.414 225.727L238.383 239.227L241.266 227.062L261.516 155.625H272.906L292.664 227.062L295.477 239.438L297.656 225.656L313.547 155.625H327.117L302.297 258H289.992L268.898 183.398L267.281 175.594L265.664 183.398L243.797 258H231.492L206.742 155.625H220.242L236.414 225.727ZM417.469 225.516C416.203 236.344 412.195 244.711 405.445 250.617C398.742 256.477 389.812 259.406 378.656 259.406C366.562 259.406 356.859 255.07 349.547 246.398C342.281 237.727 338.648 226.125 338.648 211.594V201.75C338.648 192.234 340.336 183.867 343.711 176.648C347.133 169.43 351.961 163.898 358.195 160.055C364.43 156.164 371.648 154.219 379.852 154.219C390.727 154.219 399.445 157.266 406.008 163.359C412.57 169.406 416.391 177.797 417.469 188.531H403.898C402.727 180.375 400.172 174.469 396.234 170.812C392.344 167.156 386.883 165.328 379.852 165.328C371.227 165.328 364.453 168.516 359.531 174.891C354.656 181.266 352.219 190.336 352.219 202.102V212.016C352.219 223.125 354.539 231.961 359.18 238.523C363.82 245.086 370.312 248.367 378.656 248.367C386.156 248.367 391.898 246.68 395.883 243.305C399.914 239.883 402.586 233.953 403.898 225.516H417.469Z" fill="white"/>
</svg>
