<svg width="200" height="200" viewBox="0 0 200 200" fill="none" xmlns="http://www.w3.org/2000/svg">
<path d="M168.25 51.4323H31.75V135.432H168.25V51.4323Z" fill="white"/>
<path d="M168.25 51.4323H31.75V72.4323H168.25V51.4323Z" fill="#FF4F19"/>
<path d="M166.653 40.9323H33.3421C26.6742 40.9323 21.25 46.344 21.25 52.9961V148.557C21.25 150.008 22.424 151.182 23.875 151.182H176.125C177.576 151.182 178.75 150.008 178.75 148.557V52.9961C178.75 46.344 173.323 40.9323 166.653 40.9323ZM31.75 132.807V54.0572C31.75 52.6076 32.9253 51.4322 34.375 51.4322H165.625C167.075 51.4322 168.25 52.6076 168.25 54.0572V132.807C168.25 134.257 167.075 135.432 165.625 135.432H34.375C32.9253 135.432 31.75 134.257 31.75 132.807Z" fill="#5C546A"/>
<path d="M181.375 145.932H18.625C17.174 145.932 16 147.106 16 148.557C16 154.353 20.7142 159.067 26.5102 159.067H173.489C179.285 159.067 184 154.353 184 148.557C184 147.106 182.826 145.932 181.375 145.932Z" fill="#B9BBC1"/>
<path d="M63.25 64.5573H44.875C43.424 64.5573 42.25 63.3832 42.25 61.9323C42.25 60.4813 43.424 59.3073 44.875 59.3073H63.25C64.701 59.3073 65.875 60.4813 65.875 61.9323C65.875 63.3832 64.701 64.5573 63.25 64.5573Z" fill="#FFD200"/>
<path d="M110.5 64.5573H107.875C106.424 64.5573 105.25 63.3832 105.25 61.9323C105.25 60.4813 106.424 59.3073 107.875 59.3073H110.5C111.951 59.3073 113.125 60.4813 113.125 61.9323C113.125 63.3832 111.951 64.5573 110.5 64.5573Z" fill="white"/>
<path d="M123.625 64.5573H121C119.549 64.5573 118.375 63.3832 118.375 61.9323C118.375 60.4813 119.549 59.3073 121 59.3073H123.625C125.076 59.3073 126.25 60.4813 126.25 61.9323C126.25 63.3832 125.076 64.5573 123.625 64.5573Z" fill="white"/>
<path d="M136.75 64.5573H134.125C132.674 64.5573 131.5 63.3832 131.5 61.9323C131.5 60.4813 132.674 59.3073 134.125 59.3073H136.75C138.201 59.3073 139.375 60.4813 139.375 61.9323C139.375 63.3832 138.201 64.5573 136.75 64.5573Z" fill="white"/>
<path d="M149.875 64.5573H147.25C145.799 64.5573 144.625 63.3832 144.625 61.9323C144.625 60.4813 145.799 59.3073 147.25 59.3073H149.875C151.326 59.3073 152.5 60.4813 152.5 61.9323C152.5 63.3832 151.326 64.5573 149.875 64.5573Z" fill="white"/>
<path d="M89.5 127.557H44.875C43.4253 127.557 42.25 126.382 42.25 124.932V82.9323C42.25 81.4826 43.4253 80.3073 44.875 80.3073H89.5C90.9497 80.3073 92.125 81.4826 92.125 82.9323V124.932C92.125 126.382 90.9497 127.557 89.5 127.557Z" fill="#53DCFF"/>
<path d="M152.5 85.5573H102.625C101.174 85.5573 100 84.3832 100 82.9323C100 81.4813 101.174 80.3073 102.625 80.3073H152.5C153.951 80.3073 155.125 81.4813 155.125 82.9323C155.125 84.3832 153.951 85.5573 152.5 85.5573Z" fill="#FF4F19"/>
<path d="M123.625 106.557H102.625C101.174 106.557 100 105.383 100 103.932C100 102.481 101.174 101.307 102.625 101.307H123.625C125.076 101.307 126.25 102.481 126.25 103.932C126.25 105.383 125.076 106.557 123.625 106.557Z" fill="#B9BBC1"/>
<path d="M123.625 117.057H102.625C101.174 117.057 100 115.883 100 114.432C100 112.981 101.174 111.807 102.625 111.807H123.625C125.076 111.807 126.25 112.981 126.25 114.432C126.25 115.883 125.076 117.057 123.625 117.057Z" fill="#B9BBC1"/>
<path d="M123.625 127.557H102.625C101.174 127.557 100 126.383 100 124.932C100 123.481 101.174 122.307 102.625 122.307H123.625C125.076 122.307 126.25 123.481 126.25 124.932C126.25 126.383 125.076 127.557 123.625 127.557Z" fill="#B9BBC1"/>
<path d="M155.125 106.557H134.125C132.674 106.557 131.5 105.383 131.5 103.932C131.5 102.481 132.674 101.307 134.125 101.307H155.125C156.576 101.307 157.75 102.481 157.75 103.932C157.75 105.383 156.576 106.557 155.125 106.557Z" fill="#B9BBC1"/>
<path d="M155.125 117.057H134.125C132.674 117.057 131.5 115.883 131.5 114.432C131.5 112.981 132.674 111.807 134.125 111.807H155.125C156.576 111.807 157.75 112.981 157.75 114.432C157.75 115.883 156.576 117.057 155.125 117.057Z" fill="#B9BBC1"/>
<path d="M155.125 127.557H134.125C132.674 127.557 131.5 126.383 131.5 124.932C131.5 123.481 132.674 122.307 134.125 122.307H155.125C156.576 122.307 157.75 123.481 157.75 124.932C157.75 126.383 156.576 127.557 155.125 127.557Z" fill="#B9BBC1"/>
<path d="M136.75 96.0573H102.625C101.174 96.0573 100 94.8832 100 93.4323C100 91.9813 101.174 90.8073 102.625 90.8073H136.75C138.201 90.8073 139.375 91.9813 139.375 93.4323C139.375 94.8832 138.201 96.0573 136.75 96.0573Z" fill="#E9001E"/>
<path d="M89.5 151.182H110.5C113.399 151.182 115.75 148.832 115.75 145.932H84.25C84.25 148.832 86.6004 151.182 89.5 151.182Z" fill="#8B8996"/>
</svg>
