<svg width="344" height="258" viewBox="0 0 344 258" fill="none" xmlns="http://www.w3.org/2000/svg">
<path d="M25.8999 9.80003V227.8H323.9V9.80003C323.9 4.90003 319.9 0.900024 315 0.900024H34.7999C29.7999 0.900024 25.8999 4.90003 25.8999 9.80003Z" fill="#CED5E0"/>
<path d="M303.6 21.2H46.1001V207.4H303.6V21.2Z" fill="#2FB5A0"/>
<path d="M303.6 198.9H46.1001V207.4H303.6V198.9Z" fill="#4CDBC4"/>
<path d="M343.9 227.8H0.100098V242.6H343.9V227.8Z" fill="#E6E9EE"/>
<path d="M320 257.4H24.0001L0.100098 242.6H343.9L320 257.4Z" fill="#ACB3BA"/>
<path d="M124 192.4C114.6 192.4 107.1 184.9 107.2 175.6C107.1 166.3 114.6 158.8 124 158.8C154.9 158.8 233.6 158.8 264.5 158.8V152.3H108.4C95.5001 152.3 85.1001 162.7 85.1001 175.6C85.1001 188.5 95.5001 198.9 108.4 198.9H264.6V192.4C233.7 192.4 154.9 192.4 124 192.4Z" fill="#FF7058"/>
<path d="M108.4 192.4C99.0001 192.4 91.5001 184.9 91.6001 175.6C91.5001 166.3 99.0001 158.8 108.4 158.8C144.5 158.8 228.5 158.8 264.6 158.8C260.1 169.6 260.1 181.7 264.6 192.4C228.5 192.4 144.5 192.4 108.4 192.4Z" fill="white"/>
<path d="M206.1 112.2C215.5 112.2 223 119.7 222.9 129C223 138.3 215.5 145.8 206.1 145.8C175.2 145.8 122.6 145.8 91.7001 145.8V152.3H221.8C234.7 152.3 245.1 141.9 245.1 129C245.1 116.1 234.7 105.7 221.8 105.7H91.6001V112.2C122.5 112.2 175.2 112.2 206.1 112.2Z" fill="#324A5E"/>
<path d="M221.7 112.2C231.1 112.2 238.6 119.7 238.5 129C238.6 138.3 231.1 145.8 221.7 145.8C185.6 145.8 127.7 145.8 91.6001 145.8C96.1001 135 96.1001 122.9 91.6001 112.2C127.7 112.2 185.6 112.2 221.7 112.2Z" fill="white"/>
<path d="M145.2 65.3C135.8 65.3 128.3 72.8001 128.4 82.1001C128.3 91.4001 135.8 98.9 145.2 98.9C176.1 98.9 228.7 98.9 259.6 98.9V105.4H129.6C116.7 105.4 106.3 95.0001 106.3 82.1001C106.3 69.2001 116.7 58.8 129.6 58.8H259.7V65.3C228.8 65.3 176.1 65.3 145.2 65.3Z" fill="#F9B54C"/>
<path d="M129.6 65.3C120.2 65.3 112.7 72.8001 112.8 82.1001C112.7 91.4001 120.2 98.9 129.6 98.9C165.7 98.9 223.6 98.9 259.7 98.9C255.2 88.1 255.2 76 259.7 65.3C223.6 65.3 165.7 65.3 129.6 65.3Z" fill="white"/>
</svg>
