<svg width="258" height="258" viewBox="0 0 258 258" fill="none" xmlns="http://www.w3.org/2000/svg">
<path d="M59.9141 152.633C59.9141 148.133 58.3203 144.664 55.1328 142.227C51.9922 139.789 46.2969 137.328 38.0469 134.844C29.7969 132.359 23.2344 129.594 18.3594 126.547C9.03125 120.688 4.36719 113.047 4.36719 103.625C4.36719 95.375 7.71875 88.5781 14.4219 83.2344C21.1719 77.8906 29.9141 75.2188 40.6484 75.2188C47.7734 75.2188 54.125 76.5312 59.7031 79.1562C65.2812 81.7812 69.6641 85.5312 72.8516 90.4062C76.0391 95.2344 77.6328 100.602 77.6328 106.508H59.9141C59.9141 101.164 58.2266 96.9922 54.8516 93.9922C51.5234 90.9453 46.7422 89.4219 40.5078 89.4219C34.6953 89.4219 30.1719 90.6641 26.9375 93.1484C23.75 95.6328 22.1562 99.1016 22.1562 103.555C22.1562 107.305 23.8906 110.445 27.3594 112.977C30.8281 115.461 36.5469 117.898 44.5156 120.289C52.4844 122.633 58.8828 125.328 63.7109 128.375C68.5391 131.375 72.0781 134.844 74.3281 138.781C76.5781 142.672 77.7031 147.242 77.7031 152.492C77.7031 161.023 74.4219 167.82 67.8594 172.883C61.3438 177.898 52.4844 180.406 41.2812 180.406C33.875 180.406 27.0547 179.047 20.8203 176.328C14.6328 173.562 9.80469 169.766 6.33594 164.938C2.91406 160.109 1.20312 154.484 1.20312 148.062H18.9922C18.9922 153.875 20.9141 158.375 24.7578 161.562C28.6016 164.75 34.1094 166.344 41.2812 166.344C47.4688 166.344 52.1094 165.102 55.2031 162.617C58.3438 160.086 59.9141 156.758 59.9141 152.633ZM174.664 130.484C174.664 140.188 173.117 148.602 170.023 155.727C166.977 162.805 162.688 168.43 157.156 172.602L174.734 186.312L163.203 196.719L141.406 179.492C138.547 180.102 135.477 180.406 132.195 180.406C123.945 180.406 116.562 178.391 110.047 174.359C103.578 170.281 98.5625 164.492 95 156.992C91.4844 149.492 89.7031 140.844 89.6562 131.047V125.281C89.6562 115.297 91.4141 106.484 94.9297 98.8438C98.4922 91.2031 103.484 85.3672 109.906 81.3359C116.375 77.2578 123.758 75.2188 132.055 75.2188C140.492 75.2188 147.922 77.2344 154.344 81.2656C160.812 85.25 165.805 91.0156 169.32 98.5625C172.836 106.062 174.617 114.805 174.664 124.789V130.484ZM156.805 125.141C156.805 113.609 154.648 104.867 150.336 98.9141C146.023 92.9609 139.93 89.9844 132.055 89.9844C124.414 89.9844 118.414 93.0078 114.055 99.0547C109.742 105.055 107.539 113.539 107.445 124.508V130.484C107.445 141.547 109.602 150.195 113.914 156.43C118.273 162.664 124.367 165.781 132.195 165.781C140.117 165.781 146.188 162.781 150.406 156.781C154.672 150.781 156.805 142.016 156.805 130.484V125.141ZM210.523 164.797H257V179H192.734V76.625H210.523V164.797Z" fill="#323232"/>
</svg>
