<svg width="200" height="200" viewBox="0 0 200 200" fill="none" xmlns="http://www.w3.org/2000/svg">
<g clip-path="url(#clip0)">
<path d="M159.334 85.7972H152.529L165.917 114.948L191 65L166.105 100.667L159.334 85.7972Z" fill="#35CC8B"/>
<path d="M156.803 100.979L150.306 114.948L135.67 85.7971H142.937L150.255 100.667L153.418 93.7347L156.803 100.979ZM134.576 101.516H114.348C114.639 106.282 117.768 109.073 121.188 109.073C123.407 109.248 125.521 108.088 126.591 106.109L132.866 108.327C130.631 112.395 126.397 114.916 121.803 114.913H120.384C113.818 114.913 107.594 109.454 107.594 99.8699C107.594 90.8924 112.724 84.9999 121.444 84.9999C127.172 85.0172 134.576 88.6567 134.576 101.516ZM127.497 96.1957C127.193 92.9522 124.31 90.6014 121.119 90.9964C118.056 90.987 115.408 93.158 114.776 96.1957H127.497ZM37.44 102.054C37.44 106.745 35.6105 109.09 31.9515 109.09C28.2925 109.09 26.4686 106.745 26.48 102.054V85.7971H20.0169V102.21C19.9266 104.201 20.199 106.193 20.8205 108.085C21.4259 109.631 22.4013 111.001 23.6588 112.071C25.9844 114.047 28.9535 115.073 31.9857 114.948C35.0174 115.069 37.9853 114.044 40.3126 112.071C41.5567 111 42.5152 109.629 43.0996 108.085C43.6985 106.187 43.9873 104.202 43.9545 102.21V85.7971H37.44V102.054ZM96.9593 85.7971C95.7709 86.4742 94.7019 87.3468 93.7961 88.3794V85.7971H87.2816L87.1748 115L93.7181 114.973L93.7448 99.4366C93.754 94.0409 95.5059 91.343 99.0282 91.343C100.334 91.3913 101.592 91.8586 102.619 92.6775L105.508 86.6983C103.919 85.6383 102.075 85.039 100.174 84.9652C99.0532 84.9869 97.9529 85.2717 96.9593 85.7971Z" fill="#3772FF"/>
<path d="M52.382 80.0013H60.1673C65.1855 80.0013 68.914 80.6351 71.3527 81.9028C73.7915 83.1546 75.8003 85.1987 77.3793 88.0351C78.9582 90.8715 79.7477 94.1833 79.7477 97.9705C79.7477 100.664 79.3021 103.144 78.411 105.41C77.5356 107.66 76.3162 109.53 74.7529 111.019C73.2052 112.509 71.5247 113.539 69.7112 114.109C67.8978 114.68 64.7556 114.965 60.2845 114.965H52.382V80.0013ZM58.9244 86.4189V108.452H61.9729C64.9744 108.452 67.1475 108.104 68.4919 107.407C69.852 106.709 70.9619 105.537 71.8217 103.889C72.6816 102.241 73.1114 100.213 73.1114 97.804C73.1114 94.0961 72.0875 91.2201 70.0396 89.176C68.1949 87.3379 65.2324 86.4189 61.1521 86.4189H58.9244Z" fill="#3772FF"/>
<path d="M31.7328 109.052V108.991H31.7138V108.983H31.7601V108.991H31.7412V109.052H31.7328Z" fill="black"/>
<path d="M31.7812 108.984H31.7892V109.037C31.7892 109.043 31.7879 109.048 31.7855 109.05C31.783 109.053 31.7792 109.054 31.7738 109.054C31.7712 109.054 31.7686 109.054 31.7662 109.053C31.7639 109.052 31.7618 109.05 31.7598 109.048L31.7652 109.042C31.7668 109.044 31.7684 109.045 31.7698 109.046C31.7712 109.047 31.7727 109.047 31.7742 109.047C31.7766 109.047 31.7783 109.046 31.7791 109.044C31.7802 109.042 31.7807 109.039 31.7807 109.033L31.7812 108.984Z" fill="black"/>
<path d="M31.8605 109C31.8572 108.997 31.8538 108.994 31.8502 108.993C31.8464 108.991 31.8423 108.99 31.8379 108.99C31.8343 108.99 31.8308 108.991 31.8272 108.992C31.8239 108.994 31.8209 108.996 31.8182 108.998C31.8155 109.001 31.8137 109.004 31.8126 109.008C31.8113 109.011 31.8106 109.015 31.8106 109.019C31.8106 109.022 31.811 109.025 31.8118 109.027C31.8125 109.03 31.8137 109.033 31.8151 109.035C31.8178 109.039 31.8211 109.042 31.8251 109.044C31.8291 109.046 31.8334 109.047 31.8381 109.047C31.8423 109.047 31.8463 109.046 31.8501 109.044C31.8539 109.043 31.8572 109.04 31.8601 109.036V109.047C31.8567 109.05 31.8531 109.051 31.8491 109.053C31.8453 109.054 31.8413 109.055 31.8371 109.055C31.8335 109.055 31.8301 109.054 31.8268 109.053C31.8234 109.052 31.8202 109.05 31.8171 109.048C31.8122 109.045 31.8084 109.041 31.8058 109.036C31.8031 109.031 31.8018 109.025 31.8018 109.019C31.8018 109.014 31.8026 109.009 31.8044 109.004C31.8061 109 31.8088 108.996 31.8124 108.993C31.8159 108.989 31.8197 108.987 31.8237 108.985C31.8279 108.984 31.8325 108.983 31.8373 108.983C31.8413 108.983 31.8451 108.983 31.8487 108.984C31.8525 108.986 31.8561 108.988 31.8597 108.99L31.8605 109Z" fill="black"/>
<path d="M31.9292 109C31.9258 108.997 31.9224 108.994 31.9188 108.993C31.9151 108.991 31.911 108.99 31.9065 108.99C31.903 108.99 31.8994 108.991 31.8958 108.992C31.8925 108.994 31.8895 108.996 31.8869 108.998C31.8842 109.001 31.8823 109.004 31.8812 109.008C31.8799 109.011 31.8792 109.015 31.8792 109.019C31.8792 109.022 31.8796 109.025 31.8804 109.027C31.8812 109.03 31.8823 109.033 31.8837 109.035C31.8864 109.039 31.8897 109.042 31.8937 109.044C31.8977 109.046 31.9021 109.047 31.9067 109.047C31.9109 109.047 31.9149 109.046 31.9187 109.044C31.9225 109.043 31.9258 109.04 31.9287 109.036V109.047C31.9254 109.05 31.9217 109.051 31.9177 109.053C31.914 109.054 31.91 109.055 31.9057 109.055C31.9022 109.055 31.8987 109.054 31.8954 109.053C31.8921 109.052 31.8889 109.05 31.8858 109.048C31.8809 109.045 31.8771 109.041 31.8744 109.036C31.8717 109.031 31.8704 109.025 31.8704 109.019C31.8704 109.014 31.8713 109.009 31.873 109.004C31.8748 109 31.8774 108.996 31.881 108.993C31.8846 108.989 31.8883 108.987 31.8923 108.985C31.8966 108.984 31.9011 108.983 31.906 108.983C31.91 108.983 31.9138 108.983 31.9173 108.984C31.9211 108.986 31.9247 108.988 31.9283 108.99L31.9292 109Z" fill="black"/>
<path d="M31.951 109.045H31.956C31.9642 109.045 31.97 109.045 31.9733 109.044C31.9764 109.043 31.9791 109.042 31.9813 109.04C31.984 109.038 31.9861 109.035 31.9877 109.031C31.9891 109.027 31.9898 109.023 31.9898 109.018C31.9898 109.014 31.9891 109.009 31.9877 109.006C31.9862 109.002 31.9841 108.999 31.9813 108.997C31.9792 108.995 31.9765 108.994 31.9733 108.993C31.97 108.992 31.9642 108.992 31.956 108.992H31.951V109.045ZM31.943 109.053V108.984H31.956C31.9656 108.984 31.9723 108.985 31.9763 108.986C31.9803 108.987 31.9838 108.988 31.9866 108.991C31.9904 108.994 31.9934 108.998 31.9956 109.002C31.9976 109.007 31.9987 109.012 31.9987 109.018C31.9987 109.025 31.9976 109.03 31.9956 109.035C31.9937 109.039 31.9907 109.043 31.9866 109.046C31.9838 109.048 31.9804 109.05 31.9767 109.051C31.9729 109.052 31.967 109.053 31.959 109.053H31.9561L31.943 109.053Z" fill="black"/>
<path d="M32.0116 109.053V108.984H32.0196V109.015L32.0479 108.984H32.0576L32.0286 109.015L32.0606 109.053H32.0502L32.0196 109.016V109.053L32.0116 109.053Z" fill="black"/>
<path d="M32.0676 109.053V108.984H32.0756V109.015L32.104 108.984H32.1136L32.0846 109.015L32.1166 109.053H32.1063L32.0756 109.016V109.053L32.0676 109.053Z" fill="black"/>
</g>
<defs>
<clipPath id="clip0">
<rect width="171" height="50" fill="white" transform="translate(20 65)"/>
</clipPath>
</defs>
</svg>
